<svg xmlns="http://www.w3.org/2000/svg" xmlns:xlink="http://www.w3.org/1999/xlink" width="50" zoomAndPan="magnify" viewBox="0 0 37.5 37.499999" height="50" preserveAspectRatio="xMidYMid meet" version="1.0"><defs><clipPath id="23188a314a"><path d="M 0 0 L 37.007812 0 L 37.007812 37.007812 L 0 37.007812 Z M 0 0 " clip-rule="nonzero"/></clipPath><clipPath id="5bbbdd72d3"><path d="M 35.3125 3.125 L 25.757812 3.125 L 24.496094 1.863281 C 24.292969 1.660156 23.976562 1.621094 23.730469 1.769531 L 22.175781 2.703125 C 21.8125 2.515625 21.433594 2.359375 21.046875 2.234375 L 20.605469 0.472656 C 20.535156 0.195312 20.285156 0 20 0 L 17.5 0 C 17.214844 0 16.964844 0.195312 16.894531 0.472656 L 16.453125 2.234375 C 16.066406 2.359375 15.6875 2.515625 15.324219 2.703125 L 13.769531 1.769531 C 13.523438 1.621094 13.207031 1.660156 13.003906 1.863281 L 11.742188 3.125 L 2.1875 3.125 C 0.980469 3.125 0 4.105469 0 5.3125 L 0 27.1875 C 0 28.394531 0.980469 29.375 2.1875 29.375 L 15.226562 29.375 C 15.011719 30.480469 14.472656 31.519531 13.636719 32.351562 L 13.492188 32.5 L 12.644531 32.5 C 11.542969 32.5 10.566406 33.203125 10.214844 34.25 L 9.628906 36.015625 C 9.511719 36.359375 9.570312 36.738281 9.78125 37.03125 C 9.992188 37.324219 10.335938 37.5 10.699219 37.5 L 26.800781 37.5 C 27.164062 37.5 27.507812 37.324219 27.71875 37.03125 C 27.929688 36.738281 27.988281 36.359375 27.871094 36.015625 L 27.285156 34.25 C 26.933594 33.203125 25.957031 32.5 24.855469 32.5 L 24.007812 32.5 L 23.863281 32.351562 C 23.027344 31.519531 22.492188 30.480469 22.277344 29.375 L 35.3125 29.375 C 36.519531 29.375 37.5 28.394531 37.5 27.1875 L 37.5 5.3125 C 37.5 4.105469 36.519531 3.125 35.3125 3.125 Z M 13.332031 5.613281 L 12.464844 4.167969 L 13.542969 3.089844 L 14.988281 3.957031 C 15.183594 4.074219 15.425781 4.078125 15.621094 3.960938 C 16.097656 3.6875 16.605469 3.476562 17.132812 3.335938 C 17.355469 3.277344 17.523438 3.105469 17.578125 2.882812 L 17.988281 1.25 L 19.511719 1.25 L 19.921875 2.882812 C 19.976562 3.105469 20.144531 3.277344 20.367188 3.335938 C 20.894531 3.476562 21.402344 3.6875 21.878906 3.960938 C 22.074219 4.078125 22.316406 4.074219 22.511719 3.957031 L 23.957031 3.089844 L 25.035156 4.167969 L 24.167969 5.613281 C 24.050781 5.808594 24.046875 6.050781 24.164062 6.246094 C 24.4375 6.722656 24.648438 7.230469 24.789062 7.757812 C 24.847656 7.980469 25.019531 8.148438 25.242188 8.203125 L 26.875 8.613281 L 26.875 10.136719 L 25.242188 10.546875 C 25.019531 10.601562 24.847656 10.769531 24.789062 10.992188 C 24.648438 11.519531 24.4375 12.027344 24.164062 12.503906 C 24.046875 12.699219 24.050781 12.941406 24.167969 13.136719 L 25.035156 14.582031 L 23.957031 15.660156 L 22.511719 14.792969 C 22.316406 14.675781 22.074219 14.671875 21.878906 14.789062 C 21.402344 15.0625 20.894531 15.273438 20.367188 15.414062 C 20.144531 15.472656 19.976562 15.644531 19.921875 15.867188 L 19.511719 17.5 L 17.988281 17.5 L 17.578125 15.867188 C 17.523438 15.644531 17.355469 15.472656 17.132812 15.414062 C 16.605469 15.273438 16.097656 15.0625 15.621094 14.789062 C 15.425781 14.671875 15.183594 14.675781 14.988281 14.792969 L 13.542969 15.660156 L 12.464844 14.582031 L 13.332031 13.136719 C 13.449219 12.941406 13.453125 12.699219 13.335938 12.503906 C 13.0625 12.027344 12.851562 11.519531 12.710938 10.992188 C 12.652344 10.769531 12.480469 10.601562 12.257812 10.546875 L 10.625 10.136719 L 10.625 8.613281 L 12.257812 8.203125 C 12.480469 8.148438 12.652344 7.980469 12.710938 7.757812 C 12.851562 7.230469 13.0625 6.722656 13.335938 6.246094 C 13.453125 6.050781 13.449219 5.808594 13.332031 5.613281 Z M 27.445312 11.28125 L 27.539062 11.65625 C 27.59375 11.878906 27.761719 12.050781 27.984375 12.109375 C 28.34375 12.207031 28.695312 12.351562 29.019531 12.539062 C 29.214844 12.652344 29.457031 12.652344 29.652344 12.535156 L 30.566406 11.984375 L 31.140625 12.558594 L 30.589844 13.472656 C 30.472656 13.664062 30.472656 13.910156 30.585938 14.105469 C 30.773438 14.429688 30.917969 14.78125 31.015625 15.140625 C 31.074219 15.363281 31.246094 15.53125 31.46875 15.585938 L 32.5 15.84375 L 32.5 16.65625 L 31.46875 16.914062 C 31.246094 16.96875 31.074219 17.136719 31.015625 17.359375 C 30.917969 17.71875 30.773438 18.070312 30.585938 18.394531 C 30.472656 18.589844 30.472656 18.832031 30.589844 19.027344 L 31.140625 19.941406 L 30.566406 20.511719 L 29.652344 19.964844 C 29.457031 19.847656 29.214844 19.847656 29.019531 19.960938 C 28.695312 20.148438 28.34375 20.292969 27.984375 20.390625 C 27.761719 20.449219 27.59375 20.621094 27.539062 20.84375 L 27.28125 21.875 L 26.46875 21.875 L 26.210938 20.84375 C 26.15625 20.621094 25.988281 20.449219 25.765625 20.390625 C 25.40625 20.292969 25.054688 20.148438 24.730469 19.960938 C 24.535156 19.847656 24.289062 19.847656 24.097656 19.964844 L 23.183594 20.515625 L 22.609375 19.941406 L 23.160156 19.027344 C 23.277344 18.832031 23.277344 18.589844 23.164062 18.394531 C 22.976562 18.070312 22.832031 17.71875 22.734375 17.359375 C 22.675781 17.136719 22.503906 16.96875 22.28125 16.914062 L 21.25 16.65625 L 21.25 16.445312 C 21.566406 16.335938 21.875 16.203125 22.175781 16.046875 L 23.144531 16.628906 C 23.335938 18.519531 24.933594 20 26.875 20 C 28.941406 20 30.625 18.316406 30.625 16.25 C 30.625 14.183594 28.941406 12.5 26.875 12.5 C 26.363281 12.5 25.871094 12.605469 25.425781 12.792969 C 25.613281 12.433594 25.765625 12.058594 25.890625 11.671875 Z M 26.261719 15.121094 C 26.464844 14.917969 26.503906 14.601562 26.355469 14.355469 L 26.074219 13.882812 C 26.324219 13.796875 26.59375 13.75 26.875 13.75 C 28.253906 13.75 29.375 14.871094 29.375 16.25 C 29.375 17.628906 28.253906 18.75 26.875 18.75 C 25.726562 18.75 24.757812 17.972656 24.464844 16.914062 C 24.476562 16.90625 24.484375 16.898438 24.496094 16.886719 Z M 5.664062 17.769531 C 5.476562 17.445312 5.332031 17.09375 5.234375 16.734375 C 5.175781 16.511719 5.003906 16.34375 4.78125 16.289062 L 3.75 16.03125 L 3.75 15.21875 L 4.78125 14.960938 C 5.003906 14.90625 5.175781 14.738281 5.234375 14.515625 C 5.332031 14.15625 5.476562 13.804688 5.664062 13.480469 C 5.777344 13.285156 5.777344 13.039062 5.660156 12.847656 L 5.109375 11.933594 L 5.683594 11.359375 L 6.597656 11.910156 C 6.789062 12.027344 7.035156 12.027344 7.230469 11.914062 C 7.554688 11.726562 7.90625 11.582031 8.265625 11.484375 C 8.488281 11.425781 8.65625 11.253906 8.710938 11.03125 L 8.96875 10 L 9.375 10 L 9.375 10.625 C 9.375 10.910156 9.570312 11.160156 9.847656 11.230469 L 11.609375 11.671875 C 11.734375 12.058594 11.890625 12.4375 12.078125 12.800781 L 11.988281 12.945312 C 11.3125 12.285156 10.390625 11.875 9.375 11.875 C 7.308594 11.875 5.625 13.558594 5.625 15.625 C 5.625 17.691406 7.308594 19.375 9.375 19.375 C 11.027344 19.375 12.433594 18.300781 12.929688 16.8125 L 13.003906 16.886719 C 13.117188 17 13.261719 17.058594 13.410156 17.066406 C 13.324219 17.3125 13.214844 17.546875 13.085938 17.769531 C 12.972656 17.964844 12.972656 18.210938 13.089844 18.402344 L 13.640625 19.316406 L 13.066406 19.890625 L 12.152344 19.339844 C 11.960938 19.222656 11.714844 19.222656 11.519531 19.335938 C 11.195312 19.523438 10.847656 19.667969 10.484375 19.765625 C 10.261719 19.824219 10.09375 19.996094 10.039062 20.21875 L 9.78125 21.25 L 8.96875 21.25 L 8.710938 20.21875 C 8.65625 19.996094 8.488281 19.824219 8.265625 19.765625 C 7.90625 19.667969 7.554688 19.523438 7.230469 19.335938 C 7.035156 19.222656 6.789062 19.222656 6.597656 19.339844 L 5.683594 19.890625 L 5.109375 19.316406 L 5.660156 18.402344 C 5.777344 18.210938 5.777344 17.964844 5.664062 17.769531 Z M 11.238281 15.121094 L 11.871094 15.753906 C 11.804688 17.074219 10.710938 18.125 9.375 18.125 C 7.996094 18.125 6.875 17.003906 6.875 15.625 C 6.875 14.246094 7.996094 13.125 9.375 13.125 C 10.160156 13.125 10.863281 13.492188 11.320312 14.058594 L 11.144531 14.355469 C 10.996094 14.601562 11.035156 14.917969 11.238281 15.121094 Z M 2.1875 4.375 L 11.132812 4.375 C 11.136719 4.382812 11.140625 4.386719 11.144531 4.394531 L 12.078125 5.949219 C 11.890625 6.3125 11.734375 6.691406 11.609375 7.078125 L 9.847656 7.519531 C 9.570312 7.589844 9.375 7.839844 9.375 8.125 L 9.375 8.75 L 8.480469 8.75 C 8.195312 8.75 7.945312 8.945312 7.875 9.222656 L 7.585938 10.386719 C 7.363281 10.460938 7.144531 10.550781 6.9375 10.65625 L 5.910156 10.039062 C 5.664062 9.890625 5.347656 9.929688 5.144531 10.132812 L 3.882812 11.394531 C 3.679688 11.597656 3.640625 11.914062 3.789062 12.160156 L 4.40625 13.1875 C 4.300781 13.394531 4.210938 13.613281 4.136719 13.835938 L 2.972656 14.125 C 2.695312 14.195312 2.5 14.445312 2.5 14.730469 L 2.5 16.519531 C 2.5 16.804688 2.695312 17.054688 2.972656 17.125 L 4.136719 17.414062 C 4.210938 17.636719 4.300781 17.855469 4.40625 18.0625 L 3.789062 19.089844 C 3.640625 19.335938 3.679688 19.652344 3.882812 19.855469 L 5.144531 21.117188 C 5.347656 21.320312 5.664062 21.359375 5.910156 21.210938 L 6.9375 20.59375 C 7.144531 20.699219 7.363281 20.789062 7.585938 20.863281 L 7.875 22.027344 C 7.945312 22.304688 8.195312 22.5 8.480469 22.5 L 10.269531 22.5 C 10.554688 22.5 10.804688 22.304688 10.875 22.027344 L 11.164062 20.863281 C 11.386719 20.789062 11.605469 20.699219 11.8125 20.59375 L 12.839844 21.210938 C 13.085938 21.359375 13.402344 21.320312 13.605469 21.117188 L 14.867188 19.855469 C 15.070312 19.652344 15.109375 19.335938 14.960938 19.089844 L 14.34375 18.0625 C 14.449219 17.855469 14.539062 17.636719 14.613281 17.414062 L 15.777344 17.125 C 16.054688 17.054688 16.25 16.804688 16.25 16.519531 L 16.25 16.445312 C 16.316406 16.46875 16.386719 16.492188 16.453125 16.515625 L 16.894531 18.277344 C 16.964844 18.554688 17.214844 18.75 17.5 18.75 L 20 18.75 C 20.285156 18.75 20.535156 18.554688 20.605469 18.277344 L 20.722656 17.8125 L 21.636719 18.039062 C 21.710938 18.261719 21.800781 18.480469 21.90625 18.6875 L 21.289062 19.714844 C 21.140625 19.960938 21.179688 20.277344 21.382812 20.480469 L 22.644531 21.742188 C 22.847656 21.945312 23.164062 21.984375 23.410156 21.835938 L 24.4375 21.21875 C 24.644531 21.324219 24.863281 21.414062 25.085938 21.488281 L 25.375 22.652344 C 25.445312 22.929688 25.695312 23.125 25.980469 23.125 L 27.769531 23.125 C 28.054688 23.125 28.304688 22.929688 28.375 22.652344 L 28.664062 21.488281 C 28.886719 21.414062 29.101562 21.324219 29.3125 21.21875 L 30.339844 21.835938 C 30.585938 21.984375 30.902344 21.945312 31.105469 21.742188 L 32.367188 20.480469 C 32.570312 20.277344 32.609375 19.960938 32.460938 19.714844 L 31.84375 18.6875 C 31.949219 18.480469 32.039062 18.261719 32.113281 18.039062 L 33.277344 17.75 C 33.554688 17.679688 33.75 17.429688 33.75 17.144531 L 33.75 15.355469 C 33.75 15.070312 33.554688 14.820312 33.277344 14.75 L 32.113281 14.460938 C 32.039062 14.238281 31.949219 14.019531 31.84375 13.8125 L 32.460938 12.785156 C 32.609375 12.539062 32.570312 12.222656 32.367188 12.019531 L 31.105469 10.757812 C 30.902344 10.554688 30.585938 10.515625 30.339844 10.664062 L 29.3125 11.28125 C 29.101562 11.175781 28.886719 11.085938 28.664062 11.011719 L 28.375 9.847656 C 28.335938 9.699219 28.246094 9.574219 28.125 9.488281 L 28.125 8.125 C 28.125 7.839844 27.929688 7.589844 27.652344 7.519531 L 25.890625 7.078125 C 25.765625 6.691406 25.609375 6.3125 25.421875 5.949219 L 26.355469 4.394531 C 26.359375 4.386719 26.363281 4.382812 26.367188 4.375 L 35.3125 4.375 C 35.828125 4.375 36.25 4.796875 36.25 5.3125 L 36.25 24.375 L 1.25 24.375 L 1.25 5.3125 C 1.25 4.796875 1.671875 4.375 2.1875 4.375 Z M 26.097656 34.648438 L 26.632812 36.25 L 10.867188 36.25 L 11.402344 34.648438 C 11.582031 34.109375 12.082031 33.75 12.644531 33.75 L 24.855469 33.75 C 25.417969 33.75 25.917969 34.109375 26.097656 34.648438 Z M 22.335938 32.5 L 15.160156 32.5 C 15.867188 31.570312 16.320312 30.5 16.496094 29.375 L 21.007812 29.375 C 21.183594 30.496094 21.632812 31.570312 22.335938 32.5 Z M 35.3125 28.125 L 2.1875 28.125 C 1.671875 28.125 1.25 27.703125 1.25 27.1875 L 1.25 25.625 L 36.25 25.625 L 36.25 27.1875 C 36.25 27.703125 35.828125 28.125 35.3125 28.125 Z M 22.5 26.875 C 22.5 27.21875 22.21875 27.5 21.875 27.5 L 15.625 27.5 C 15.28125 27.5 15 27.21875 15 26.875 C 15 26.53125 15.28125 26.25 15.625 26.25 L 21.875 26.25 C 22.21875 26.25 22.5 26.53125 22.5 26.875 Z M 35 26.875 C 35 27.21875 34.71875 27.5 34.375 27.5 L 33.125 27.5 C 32.78125 27.5 32.5 27.21875 32.5 26.875 C 32.5 26.53125 32.78125 26.25 33.125 26.25 L 34.375 26.25 C 34.71875 26.25 35 26.53125 35 26.875 Z M 31.875 26.875 C 31.875 27.21875 31.59375 27.5 31.25 27.5 L 30 27.5 C 29.65625 27.5 29.375 27.21875 29.375 26.875 C 29.375 26.53125 29.65625 26.25 30 26.25 L 31.25 26.25 C 31.59375 26.25 31.875 26.53125 31.875 26.875 Z M 28.75 26.875 C 28.75 27.21875 28.46875 27.5 28.125 27.5 L 26.875 27.5 C 26.53125 27.5 26.25 27.21875 26.25 26.875 C 26.25 26.53125 26.53125 26.25 26.875 26.25 L 28.125 26.25 C 28.46875 26.25 28.75 26.53125 28.75 26.875 Z M 3.75 26.875 C 3.75 27.21875 3.472656 27.5 3.125 27.5 C 2.78125 27.5 2.5 27.21875 2.5 26.875 C 2.5 26.53125 2.78125 26.25 3.125 26.25 C 3.472656 26.25 3.75 26.53125 3.75 26.875 Z M 5.625 26.875 C 5.625 27.21875 5.347656 27.5 5 27.5 C 4.65625 27.5 4.375 27.21875 4.375 26.875 C 4.375 26.53125 4.65625 26.25 5 26.25 C 5.347656 26.25 5.625 26.53125 5.625 26.875 Z M 7.5 26.875 C 7.5 27.21875 7.222656 27.5 6.875 27.5 C 6.53125 27.5 6.25 27.21875 6.25 26.875 C 6.25 26.53125 6.53125 26.25 6.875 26.25 C 7.222656 26.25 7.5 26.53125 7.5 26.875 Z M 18.75 14.375 C 21.507812 14.375 23.75 12.132812 23.75 9.375 C 23.75 6.617188 21.507812 4.375 18.75 4.375 C 15.992188 4.375 13.75 6.617188 13.75 9.375 C 13.75 12.132812 15.992188 14.375 18.75 14.375 Z M 18.75 5.625 C 20.816406 5.625 22.5 7.308594 22.5 9.375 C 22.5 11.441406 20.816406 13.125 18.75 13.125 C 16.683594 13.125 15 11.441406 15 9.375 C 15 7.308594 16.683594 5.625 18.75 5.625 Z M 18.75 5.625 " clip-rule="nonzero"/></clipPath><linearGradient x1="3.157883" gradientTransform="matrix(0.078125, 0, 0, 0.078125, -1.249999, -1.249999)" y1="476.842126" x2="476.842139" gradientUnits="userSpaceOnUse" y2="3.15787" id="0de0d9b436"><stop stop-opacity="1" stop-color="rgb(36.898804%, 73.699951%, 89.7995%)" offset="0"/><stop stop-opacity="1" stop-color="rgb(37.080383%, 73.55957%, 89.801025%)" offset="0.125"/><stop stop-opacity="1" stop-color="rgb(37.574768%, 73.178101%, 89.807129%)" offset="0.128906"/><stop stop-opacity="1" stop-color="rgb(37.886047%, 72.938538%, 89.810181%)" offset="0.132812"/><stop stop-opacity="1" stop-color="rgb(38.197327%, 72.697449%, 89.813232%)" offset="0.136719"/><stop stop-opacity="1" stop-color="rgb(38.510132%, 72.457886%, 89.81781%)" offset="0.140625"/><stop stop-opacity="1" stop-color="rgb(38.821411%, 72.216797%, 89.820862%)" offset="0.144531"/><stop stop-opacity="1" stop-color="rgb(39.13269%, 71.977234%, 89.825439%)" offset="0.148438"/><stop stop-opacity="1" stop-color="rgb(39.44397%, 71.736145%, 89.828491%)" offset="0.152344"/><stop stop-opacity="1" stop-color="rgb(39.756775%, 71.496582%, 89.833069%)" offset="0.15625"/><stop stop-opacity="1" stop-color="rgb(40.068054%, 71.255493%, 89.836121%)" offset="0.160156"/><stop stop-opacity="1" stop-color="rgb(40.379333%, 71.01593%, 89.839172%)" offset="0.164062"/><stop stop-opacity="1" stop-color="rgb(40.690613%, 70.774841%, 89.842224%)" offset="0.167969"/><stop stop-opacity="1" stop-color="rgb(41.003418%, 70.535278%, 89.846802%)" offset="0.171875"/><stop stop-opacity="1" stop-color="rgb(41.314697%, 70.294189%, 89.849854%)" offset="0.175781"/><stop stop-opacity="1" stop-color="rgb(41.625977%, 70.054626%, 89.854431%)" offset="0.179688"/><stop stop-opacity="1" stop-color="rgb(41.937256%, 69.813538%, 89.857483%)" offset="0.183594"/><stop stop-opacity="1" stop-color="rgb(42.250061%, 69.573975%, 89.860535%)" offset="0.1875"/><stop stop-opacity="1" stop-color="rgb(42.56134%, 69.332886%, 89.863586%)" offset="0.191406"/><stop stop-opacity="1" stop-color="rgb(42.874146%, 69.093323%, 89.868164%)" offset="0.195312"/><stop stop-opacity="1" stop-color="rgb(43.185425%, 68.852234%, 89.871216%)" offset="0.199219"/><stop stop-opacity="1" stop-color="rgb(43.496704%, 68.612671%, 89.875793%)" offset="0.203125"/><stop stop-opacity="1" stop-color="rgb(43.807983%, 68.371582%, 89.878845%)" offset="0.207031"/><stop stop-opacity="1" stop-color="rgb(44.120789%, 68.132019%, 89.883423%)" offset="0.210938"/><stop stop-opacity="1" stop-color="rgb(44.432068%, 67.89093%, 89.886475%)" offset="0.214844"/><stop stop-opacity="1" stop-color="rgb(44.743347%, 67.651367%, 89.889526%)" offset="0.21875"/><stop stop-opacity="1" stop-color="rgb(45.054626%, 67.410278%, 89.892578%)" offset="0.222656"/><stop stop-opacity="1" stop-color="rgb(45.367432%, 67.170715%, 89.897156%)" offset="0.226562"/><stop stop-opacity="1" stop-color="rgb(45.678711%, 66.929626%, 89.900208%)" offset="0.230469"/><stop stop-opacity="1" stop-color="rgb(45.98999%, 66.690063%, 89.904785%)" offset="0.234375"/><stop stop-opacity="1" stop-color="rgb(46.30127%, 66.448975%, 89.907837%)" offset="0.238281"/><stop stop-opacity="1" stop-color="rgb(46.614075%, 66.209412%, 89.912415%)" offset="0.242188"/><stop stop-opacity="1" stop-color="rgb(46.925354%, 65.968323%, 89.915466%)" offset="0.246094"/><stop stop-opacity="1" stop-color="rgb(47.238159%, 65.72876%, 89.918518%)" offset="0.25"/><stop stop-opacity="1" stop-color="rgb(47.549438%, 65.487671%, 89.92157%)" offset="0.253906"/><stop stop-opacity="1" stop-color="rgb(47.860718%, 65.248108%, 89.926147%)" offset="0.257812"/><stop stop-opacity="1" stop-color="rgb(48.171997%, 65.007019%, 89.929199%)" offset="0.261719"/><stop stop-opacity="1" stop-color="rgb(48.484802%, 64.767456%, 89.933777%)" offset="0.265625"/><stop stop-opacity="1" stop-color="rgb(48.796082%, 64.526367%, 89.936829%)" offset="0.269531"/><stop stop-opacity="1" stop-color="rgb(49.107361%, 64.286804%, 89.941406%)" offset="0.273438"/><stop stop-opacity="1" stop-color="rgb(49.41864%, 64.045715%, 89.944458%)" offset="0.277344"/><stop stop-opacity="1" stop-color="rgb(49.731445%, 63.806152%, 89.94751%)" offset="0.28125"/><stop stop-opacity="1" stop-color="rgb(50.042725%, 63.565063%, 89.950562%)" offset="0.285156"/><stop stop-opacity="1" stop-color="rgb(50.354004%, 63.3255%, 89.955139%)" offset="0.289062"/><stop stop-opacity="1" stop-color="rgb(50.665283%, 63.084412%, 89.958191%)" offset="0.292969"/><stop stop-opacity="1" stop-color="rgb(50.978088%, 62.844849%, 89.962769%)" offset="0.296875"/><stop stop-opacity="1" stop-color="rgb(51.289368%, 62.60376%, 89.96582%)" offset="0.300781"/><stop stop-opacity="1" stop-color="rgb(51.600647%, 62.364197%, 89.970398%)" offset="0.304688"/><stop stop-opacity="1" stop-color="rgb(51.911926%, 62.123108%, 89.97345%)" offset="0.308594"/><stop stop-opacity="1" stop-color="rgb(52.224731%, 61.883545%, 89.976501%)" offset="0.3125"/><stop stop-opacity="1" stop-color="rgb(52.536011%, 61.642456%, 89.979553%)" offset="0.316406"/><stop stop-opacity="1" stop-color="rgb(52.848816%, 61.402893%, 89.984131%)" offset="0.320312"/><stop stop-opacity="1" stop-color="rgb(53.160095%, 61.161804%, 89.987183%)" offset="0.324219"/><stop stop-opacity="1" stop-color="rgb(53.471375%, 60.922241%, 89.99176%)" offset="0.328125"/><stop stop-opacity="1" stop-color="rgb(53.782654%, 60.681152%, 89.994812%)" offset="0.332031"/><stop stop-opacity="1" stop-color="rgb(54.095459%, 60.441589%, 89.997864%)" offset="0.335938"/><stop stop-opacity="1" stop-color="rgb(54.406738%, 60.2005%, 90.000916%)" offset="0.339844"/><stop stop-opacity="1" stop-color="rgb(54.718018%, 59.960938%, 90.005493%)" offset="0.34375"/><stop stop-opacity="1" stop-color="rgb(55.029297%, 59.719849%, 90.008545%)" offset="0.347656"/><stop stop-opacity="1" stop-color="rgb(55.342102%, 59.480286%, 90.013123%)" offset="0.351562"/><stop stop-opacity="1" stop-color="rgb(55.653381%, 59.239197%, 90.016174%)" offset="0.355469"/><stop stop-opacity="1" stop-color="rgb(55.964661%, 58.999634%, 90.020752%)" offset="0.359375"/><stop stop-opacity="1" stop-color="rgb(56.27594%, 58.758545%, 90.023804%)" offset="0.363281"/><stop stop-opacity="1" stop-color="rgb(56.588745%, 58.518982%, 90.026855%)" offset="0.367187"/><stop stop-opacity="1" stop-color="rgb(56.900024%, 58.277893%, 90.029907%)" offset="0.371094"/><stop stop-opacity="1" stop-color="rgb(57.211304%, 58.03833%, 90.034485%)" offset="0.375"/><stop stop-opacity="1" stop-color="rgb(57.522583%, 57.797241%, 90.037537%)" offset="0.378906"/><stop stop-opacity="1" stop-color="rgb(57.835388%, 57.557678%, 90.042114%)" offset="0.382812"/><stop stop-opacity="1" stop-color="rgb(58.146667%, 57.316589%, 90.045166%)" offset="0.386719"/><stop stop-opacity="1" stop-color="rgb(58.459473%, 57.077026%, 90.049744%)" offset="0.390625"/><stop stop-opacity="1" stop-color="rgb(58.770752%, 56.835938%, 90.052795%)" offset="0.394531"/><stop stop-opacity="1" stop-color="rgb(59.082031%, 56.596375%, 90.055847%)" offset="0.398438"/><stop stop-opacity="1" stop-color="rgb(59.393311%, 56.355286%, 90.058899%)" offset="0.402344"/><stop stop-opacity="1" stop-color="rgb(59.706116%, 56.115723%, 90.063477%)" offset="0.40625"/><stop stop-opacity="1" stop-color="rgb(60.017395%, 55.874634%, 90.066528%)" offset="0.410156"/><stop stop-opacity="1" stop-color="rgb(60.328674%, 55.635071%, 90.071106%)" offset="0.414062"/><stop stop-opacity="1" stop-color="rgb(60.639954%, 55.393982%, 90.074158%)" offset="0.417969"/><stop stop-opacity="1" stop-color="rgb(60.952759%, 55.154419%, 90.078735%)" offset="0.421875"/><stop stop-opacity="1" stop-color="rgb(61.264038%, 54.91333%, 90.081787%)" offset="0.425781"/><stop stop-opacity="1" stop-color="rgb(61.575317%, 54.673767%, 90.084839%)" offset="0.429688"/><stop stop-opacity="1" stop-color="rgb(61.886597%, 54.432678%, 90.087891%)" offset="0.433594"/><stop stop-opacity="1" stop-color="rgb(62.199402%, 54.193115%, 90.092468%)" offset="0.4375"/><stop stop-opacity="1" stop-color="rgb(62.510681%, 53.952026%, 90.09552%)" offset="0.441406"/><stop stop-opacity="1" stop-color="rgb(62.823486%, 53.712463%, 90.100098%)" offset="0.445312"/><stop stop-opacity="1" stop-color="rgb(63.134766%, 53.471375%, 90.103149%)" offset="0.449219"/><stop stop-opacity="1" stop-color="rgb(63.446045%, 53.231812%, 90.107727%)" offset="0.453125"/><stop stop-opacity="1" stop-color="rgb(63.757324%, 52.990723%, 90.110779%)" offset="0.457031"/><stop stop-opacity="1" stop-color="rgb(64.070129%, 52.75116%, 90.113831%)" offset="0.460937"/><stop stop-opacity="1" stop-color="rgb(64.381409%, 52.510071%, 90.116882%)" offset="0.464844"/><stop stop-opacity="1" stop-color="rgb(64.692688%, 52.270508%, 90.12146%)" offset="0.46875"/><stop stop-opacity="1" stop-color="rgb(65.003967%, 52.029419%, 90.124512%)" offset="0.472656"/><stop stop-opacity="1" stop-color="rgb(65.316772%, 51.789856%, 90.129089%)" offset="0.476562"/><stop stop-opacity="1" stop-color="rgb(65.628052%, 51.548767%, 90.132141%)" offset="0.480469"/><stop stop-opacity="1" stop-color="rgb(65.939331%, 51.309204%, 90.135193%)" offset="0.484375"/><stop stop-opacity="1" stop-color="rgb(66.25061%, 51.068115%, 90.138245%)" offset="0.488281"/><stop stop-opacity="1" stop-color="rgb(66.563416%, 50.828552%, 90.142822%)" offset="0.492187"/><stop stop-opacity="1" stop-color="rgb(66.874695%, 50.587463%, 90.145874%)" offset="0.496094"/><stop stop-opacity="1" stop-color="rgb(67.185974%, 50.3479%, 90.150452%)" offset="0.5"/><stop stop-opacity="1" stop-color="rgb(67.497253%, 50.106812%, 90.153503%)" offset="0.503906"/><stop stop-opacity="1" stop-color="rgb(67.810059%, 49.867249%, 90.158081%)" offset="0.507812"/><stop stop-opacity="1" stop-color="rgb(68.121338%, 49.62616%, 90.161133%)" offset="0.511719"/><stop stop-opacity="1" stop-color="rgb(68.434143%, 49.386597%, 90.164185%)" offset="0.515625"/><stop stop-opacity="1" stop-color="rgb(68.745422%, 49.145508%, 90.167236%)" offset="0.519531"/><stop stop-opacity="1" stop-color="rgb(69.056702%, 48.905945%, 90.171814%)" offset="0.523438"/><stop stop-opacity="1" stop-color="rgb(69.367981%, 48.664856%, 90.174866%)" offset="0.527344"/><stop stop-opacity="1" stop-color="rgb(69.680786%, 48.425293%, 90.179443%)" offset="0.53125"/><stop stop-opacity="1" stop-color="rgb(69.992065%, 48.184204%, 90.182495%)" offset="0.535156"/><stop stop-opacity="1" stop-color="rgb(70.303345%, 47.944641%, 90.187073%)" offset="0.539062"/><stop stop-opacity="1" stop-color="rgb(70.614624%, 47.703552%, 90.190125%)" offset="0.542969"/><stop stop-opacity="1" stop-color="rgb(70.927429%, 47.462463%, 90.193176%)" offset="0.546875"/><stop stop-opacity="1" stop-color="rgb(71.203613%, 47.253418%, 90.06958%)" offset="0.550781"/><stop stop-opacity="1" stop-color="rgb(71.481323%, 47.044373%, 89.94751%)" offset="0.554688"/><stop stop-opacity="1" stop-color="rgb(71.652222%, 46.931458%, 89.430237%)" offset="0.558594"/><stop stop-opacity="1" stop-color="rgb(71.82312%, 46.818542%, 88.91449%)" offset="0.5625"/><stop stop-opacity="1" stop-color="rgb(71.992493%, 46.705627%, 88.397217%)" offset="0.566406"/><stop stop-opacity="1" stop-color="rgb(72.163391%, 46.592712%, 87.879944%)" offset="0.570312"/><stop stop-opacity="1" stop-color="rgb(72.332764%, 46.479797%, 87.362671%)" offset="0.574219"/><stop stop-opacity="1" stop-color="rgb(72.503662%, 46.366882%, 86.845398%)" offset="0.578125"/><stop stop-opacity="1" stop-color="rgb(72.674561%, 46.253967%, 86.328125%)" offset="0.582031"/><stop stop-opacity="1" stop-color="rgb(72.845459%, 46.141052%, 85.810852%)" offset="0.585938"/><stop stop-opacity="1" stop-color="rgb(73.014832%, 46.028137%, 85.293579%)" offset="0.589844"/><stop stop-opacity="1" stop-color="rgb(73.18573%, 45.915222%, 84.777832%)" offset="0.59375"/><stop stop-opacity="1" stop-color="rgb(73.355103%, 45.802307%, 84.260559%)" offset="0.597656"/><stop stop-opacity="1" stop-color="rgb(73.526001%, 45.689392%, 83.743286%)" offset="0.601562"/><stop stop-opacity="1" stop-color="rgb(73.696899%, 45.576477%, 83.226013%)" offset="0.605469"/><stop stop-opacity="1" stop-color="rgb(73.867798%, 45.463562%, 82.70874%)" offset="0.609375"/><stop stop-opacity="1" stop-color="rgb(74.03717%, 45.350647%, 82.191467%)" offset="0.613281"/><stop stop-opacity="1" stop-color="rgb(74.208069%, 45.237732%, 81.674194%)" offset="0.617188"/><stop stop-opacity="1" stop-color="rgb(74.377441%, 45.124817%, 81.156921%)" offset="0.621094"/><stop stop-opacity="1" stop-color="rgb(74.54834%, 45.011902%, 80.639648%)" offset="0.625"/><stop stop-opacity="1" stop-color="rgb(74.719238%, 44.898987%, 80.122375%)" offset="0.628906"/><stop stop-opacity="1" stop-color="rgb(74.890137%, 44.786072%, 79.606628%)" offset="0.632812"/><stop stop-opacity="1" stop-color="rgb(75.059509%, 44.673157%, 79.089355%)" offset="0.636719"/><stop stop-opacity="1" stop-color="rgb(75.230408%, 44.560242%, 78.572083%)" offset="0.640625"/><stop stop-opacity="1" stop-color="rgb(75.39978%, 44.447327%, 78.05481%)" offset="0.644531"/><stop stop-opacity="1" stop-color="rgb(75.570679%, 44.334412%, 77.537537%)" offset="0.648438"/><stop stop-opacity="1" stop-color="rgb(75.741577%, 44.221497%, 77.020264%)" offset="0.652344"/><stop stop-opacity="1" stop-color="rgb(75.912476%, 44.108582%, 76.502991%)" offset="0.65625"/><stop stop-opacity="1" stop-color="rgb(76.081848%, 43.995667%, 75.985718%)" offset="0.660156"/><stop stop-opacity="1" stop-color="rgb(76.252747%, 43.882751%, 75.468445%)" offset="0.664062"/><stop stop-opacity="1" stop-color="rgb(76.422119%, 43.769836%, 74.951172%)" offset="0.667969"/><stop stop-opacity="1" stop-color="rgb(76.593018%, 43.656921%, 74.435425%)" offset="0.671875"/><stop stop-opacity="1" stop-color="rgb(76.763916%, 43.544006%, 73.918152%)" offset="0.675781"/><stop stop-opacity="1" stop-color="rgb(76.934814%, 43.431091%, 73.400879%)" offset="0.679687"/><stop stop-opacity="1" stop-color="rgb(77.104187%, 43.318176%, 72.883606%)" offset="0.683594"/><stop stop-opacity="1" stop-color="rgb(77.275085%, 43.205261%, 72.366333%)" offset="0.6875"/><stop stop-opacity="1" stop-color="rgb(77.444458%, 43.092346%, 71.84906%)" offset="0.691406"/><stop stop-opacity="1" stop-color="rgb(77.615356%, 42.979431%, 71.331787%)" offset="0.695312"/><stop stop-opacity="1" stop-color="rgb(77.786255%, 42.866516%, 70.814514%)" offset="0.699219"/><stop stop-opacity="1" stop-color="rgb(77.957153%, 42.753601%, 70.298767%)" offset="0.703125"/><stop stop-opacity="1" stop-color="rgb(78.126526%, 42.640686%, 69.781494%)" offset="0.707031"/><stop stop-opacity="1" stop-color="rgb(78.297424%, 42.527771%, 69.264221%)" offset="0.710938"/><stop stop-opacity="1" stop-color="rgb(78.466797%, 42.414856%, 68.746948%)" offset="0.714844"/><stop stop-opacity="1" stop-color="rgb(78.637695%, 42.301941%, 68.229675%)" offset="0.71875"/><stop stop-opacity="1" stop-color="rgb(78.808594%, 42.189026%, 67.712402%)" offset="0.722656"/><stop stop-opacity="1" stop-color="rgb(78.979492%, 42.076111%, 67.195129%)" offset="0.726562"/><stop stop-opacity="1" stop-color="rgb(79.148865%, 41.963196%, 66.677856%)" offset="0.730469"/><stop stop-opacity="1" stop-color="rgb(79.319763%, 41.850281%, 66.160583%)" offset="0.734375"/><stop stop-opacity="1" stop-color="rgb(79.489136%, 41.737366%, 65.643311%)" offset="0.738281"/><stop stop-opacity="1" stop-color="rgb(79.660034%, 41.624451%, 65.127563%)" offset="0.742188"/><stop stop-opacity="1" stop-color="rgb(79.830933%, 41.51001%, 64.610291%)" offset="0.746094"/><stop stop-opacity="1" stop-color="rgb(80.001831%, 41.397095%, 64.093018%)" offset="0.75"/><stop stop-opacity="1" stop-color="rgb(80.171204%, 41.28418%, 63.575745%)" offset="0.753906"/><stop stop-opacity="1" stop-color="rgb(80.342102%, 41.171265%, 63.058472%)" offset="0.757812"/><stop stop-opacity="1" stop-color="rgb(80.511475%, 41.05835%, 62.541199%)" offset="0.761719"/><stop stop-opacity="1" stop-color="rgb(80.682373%, 40.945435%, 62.023926%)" offset="0.765625"/><stop stop-opacity="1" stop-color="rgb(80.853271%, 40.83252%, 61.506653%)" offset="0.769531"/><stop stop-opacity="1" stop-color="rgb(81.02417%, 40.719604%, 60.990906%)" offset="0.773438"/><stop stop-opacity="1" stop-color="rgb(81.193542%, 40.606689%, 60.473633%)" offset="0.777344"/><stop stop-opacity="1" stop-color="rgb(81.364441%, 40.493774%, 59.95636%)" offset="0.78125"/><stop stop-opacity="1" stop-color="rgb(81.533813%, 40.380859%, 59.439087%)" offset="0.785156"/><stop stop-opacity="1" stop-color="rgb(81.704712%, 40.267944%, 58.921814%)" offset="0.789062"/><stop stop-opacity="1" stop-color="rgb(81.87561%, 40.155029%, 58.404541%)" offset="0.792969"/><stop stop-opacity="1" stop-color="rgb(82.046509%, 40.042114%, 57.887268%)" offset="0.796875"/><stop stop-opacity="1" stop-color="rgb(82.215881%, 39.929199%, 57.369995%)" offset="0.800781"/><stop stop-opacity="1" stop-color="rgb(82.38678%, 39.816284%, 56.852722%)" offset="0.804688"/><stop stop-opacity="1" stop-color="rgb(82.556152%, 39.703369%, 56.335449%)" offset="0.808594"/><stop stop-opacity="1" stop-color="rgb(82.727051%, 39.590454%, 55.819702%)" offset="0.8125"/><stop stop-opacity="1" stop-color="rgb(82.897949%, 39.477539%, 55.302429%)" offset="0.816406"/><stop stop-opacity="1" stop-color="rgb(83.068848%, 39.364624%, 54.785156%)" offset="0.820312"/><stop stop-opacity="1" stop-color="rgb(83.23822%, 39.251709%, 54.267883%)" offset="0.824219"/><stop stop-opacity="1" stop-color="rgb(83.409119%, 39.138794%, 53.75061%)" offset="0.828125"/><stop stop-opacity="1" stop-color="rgb(83.578491%, 39.025879%, 53.233337%)" offset="0.832031"/><stop stop-opacity="1" stop-color="rgb(83.74939%, 38.912964%, 52.716064%)" offset="0.835938"/><stop stop-opacity="1" stop-color="rgb(83.920288%, 38.800049%, 52.198792%)" offset="0.839844"/><stop stop-opacity="1" stop-color="rgb(84.091187%, 38.687134%, 51.681519%)" offset="0.84375"/><stop stop-opacity="1" stop-color="rgb(84.260559%, 38.574219%, 51.164246%)" offset="0.847656"/><stop stop-opacity="1" stop-color="rgb(84.431458%, 38.461304%, 50.648499%)" offset="0.851562"/><stop stop-opacity="1" stop-color="rgb(84.60083%, 38.348389%, 50.131226%)" offset="0.855469"/><stop stop-opacity="1" stop-color="rgb(84.771729%, 38.235474%, 49.613953%)" offset="0.859375"/><stop stop-opacity="1" stop-color="rgb(84.942627%, 38.122559%, 49.09668%)" offset="0.863281"/><stop stop-opacity="1" stop-color="rgb(85.113525%, 38.009644%, 48.579407%)" offset="0.867187"/><stop stop-opacity="1" stop-color="rgb(85.282898%, 37.896729%, 48.062134%)" offset="0.871094"/><stop stop-opacity="1" stop-color="rgb(85.453796%, 37.783813%, 47.544861%)" offset="0.875"/><stop stop-opacity="1" stop-color="rgb(85.623169%, 37.670898%, 47.027588%)" offset="0.878906"/><stop stop-opacity="1" stop-color="rgb(85.794067%, 37.557983%, 46.511841%)" offset="0.882812"/><stop stop-opacity="1" stop-color="rgb(85.964966%, 37.445068%, 45.994568%)" offset="0.886719"/><stop stop-opacity="1" stop-color="rgb(86.135864%, 37.332153%, 45.477295%)" offset="0.890625"/><stop stop-opacity="1" stop-color="rgb(86.305237%, 37.219238%, 44.960022%)" offset="0.894531"/><stop stop-opacity="1" stop-color="rgb(86.476135%, 37.106323%, 44.442749%)" offset="0.898438"/><stop stop-opacity="1" stop-color="rgb(86.645508%, 36.993408%, 43.925476%)" offset="0.902344"/><stop stop-opacity="1" stop-color="rgb(86.816406%, 36.880493%, 43.408203%)" offset="0.90625"/><stop stop-opacity="1" stop-color="rgb(86.987305%, 36.767578%, 42.89093%)" offset="0.910156"/><stop stop-opacity="1" stop-color="rgb(87.158203%, 36.654663%, 42.373657%)" offset="0.914062"/><stop stop-opacity="1" stop-color="rgb(87.327576%, 36.541748%, 41.856384%)" offset="0.917969"/><stop stop-opacity="1" stop-color="rgb(87.498474%, 36.428833%, 41.340637%)" offset="0.921875"/><stop stop-opacity="1" stop-color="rgb(87.667847%, 36.315918%, 40.823364%)" offset="0.925781"/><stop stop-opacity="1" stop-color="rgb(87.838745%, 36.203003%, 40.306091%)" offset="0.929688"/><stop stop-opacity="1" stop-color="rgb(88.009644%, 36.090088%, 39.788818%)" offset="0.933594"/><stop stop-opacity="1" stop-color="rgb(88.180542%, 35.977173%, 39.271545%)" offset="0.9375"/><stop stop-opacity="1" stop-color="rgb(88.349915%, 35.864258%, 38.754272%)" offset="0.941406"/><stop stop-opacity="1" stop-color="rgb(88.520813%, 35.751343%, 38.237%)" offset="0.945312"/><stop stop-opacity="1" stop-color="rgb(88.55896%, 35.725403%, 38.117981%)" offset="0.953125"/><stop stop-opacity="1" stop-color="rgb(88.598633%, 35.699463%, 37.998962%)" offset="0.96875"/><stop stop-opacity="1" stop-color="rgb(88.598633%, 35.699463%, 37.998962%)" offset="1"/></linearGradient></defs><g clip-path="url(#23188a314a)"><g clip-path="url(#5bbbdd72d3)"><path fill="url(#0de0d9b436)" d="M 0 0 L 0 37.007812 L 37.007812 37.007812 L 37.007812 0 Z M 0 0 " fill-rule="nonzero"/></g></g></svg>