<svg xmlns="http://www.w3.org/2000/svg" xmlns:xlink="http://www.w3.org/1999/xlink" width="50" zoomAndPan="magnify" viewBox="0 0 37.5 37.499999" height="50" preserveAspectRatio="xMidYMid meet" version="1.0"><defs><clipPath id="143c3ab8f5"><path d="M 0 0 L 37.007812 0 L 37.007812 37.007812 L 0 37.007812 Z M 0 0 " clip-rule="nonzero"/></clipPath><clipPath id="43c1a5434c"><path d="M 36.09375 5.625 L 28.75 5.625 L 28.75 2.554688 C 28.75 1.148438 27.601562 0 26.195312 0 L 20.054688 0 C 18.648438 0 17.5 1.148438 17.5 2.554688 L 17.5 5.625 L 15 5.625 L 15 0.625 C 15 0.28125 14.71875 0 14.375 0 L 3.125 0 C 2.78125 0 2.5 0.28125 2.5 0.625 L 2.5 5.625 L 1.40625 5.625 C 0.632812 5.625 0 6.253906 0 7.03125 L 0 29.21875 C 0 29.992188 0.632812 30.625 1.40625 30.625 L 14.613281 30.625 L 13.988281 33.75 L 12.5 33.75 C 10.777344 33.75 9.375 35.152344 9.375 36.875 C 9.375 37.21875 9.65625 37.5 10 37.5 L 27.5 37.5 C 27.84375 37.5 28.125 37.21875 28.125 36.875 C 28.125 35.152344 26.722656 33.75 25 33.75 L 23.511719 33.75 L 22.886719 30.625 L 36.09375 30.625 C 36.867188 30.625 37.5 29.992188 37.5 29.21875 L 37.5 7.03125 C 37.5 6.253906 36.867188 5.625 36.09375 5.625 Z M 18.75 2.554688 C 18.75 1.835938 19.335938 1.25 20.054688 1.25 L 26.195312 1.25 C 26.914062 1.25 27.5 1.835938 27.5 2.554688 L 27.5 6.195312 C 27.5 6.914062 26.914062 7.5 26.195312 7.5 L 22.066406 7.5 C 21.882812 7.5 21.710938 7.582031 21.589844 7.71875 C 20.875 8.5625 19.90625 9.109375 18.855469 9.300781 C 19.179688 8.992188 19.46875 8.648438 19.722656 8.277344 C 19.824219 8.128906 19.855469 7.941406 19.808594 7.765625 C 19.761719 7.59375 19.640625 7.445312 19.480469 7.367188 C 19.03125 7.144531 18.75 6.695312 18.75 6.195312 Z M 10.851562 4.59375 L 13.75 2.015625 L 13.75 6.847656 Z M 12.554688 7.5 L 4.945312 7.5 L 7.597656 5.4375 L 8.335938 6.09375 C 8.453125 6.199219 8.601562 6.25 8.75 6.25 C 8.898438 6.25 9.046875 6.199219 9.164062 6.09375 L 9.902344 5.4375 Z M 12.730469 1.25 L 8.75 4.789062 L 4.769531 1.25 Z M 3.75 2.015625 L 6.648438 4.59375 L 3.75 6.847656 Z M 25 35 C 25.816406 35 26.511719 35.523438 26.769531 36.25 L 10.730469 36.25 C 10.988281 35.523438 11.683594 35 12.5 35 Z M 15.261719 33.75 L 15.886719 30.625 L 21.613281 30.625 L 22.238281 33.75 Z M 36.25 29.21875 C 36.25 29.304688 36.179688 29.375 36.09375 29.375 L 15.375 29.375 C 15.371094 29.375 15.371094 29.375 15.371094 29.375 L 1.40625 29.375 C 1.320312 29.375 1.25 29.304688 1.25 29.21875 L 1.25 26.875 L 36.25 26.875 Z M 36.25 25.625 L 1.25 25.625 L 1.25 7.03125 C 1.25 6.945312 1.320312 6.875 1.40625 6.875 L 2.5 6.875 L 2.5 8.125 C 2.5 8.46875 2.78125 8.75 3.125 8.75 L 14.375 8.75 C 14.71875 8.75 15 8.46875 15 8.125 L 15 6.875 L 17.589844 6.875 C 17.714844 7.332031 17.964844 7.742188 18.3125 8.0625 C 17.886719 8.550781 17.367188 8.953125 16.789062 9.242188 L 16.59375 9.339844 C 16.347656 9.460938 16.210938 9.730469 16.257812 10.003906 C 16.304688 10.273438 16.523438 10.484375 16.796875 10.519531 L 17.28125 10.578125 C 17.53125 10.609375 17.777344 10.625 18.023438 10.625 C 19.65625 10.625 21.21875 9.953125 22.347656 8.75 L 26.195312 8.75 C 27.367188 8.75 28.359375 7.953125 28.65625 6.875 L 36.09375 6.875 C 36.179688 6.875 36.25 6.945312 36.25 7.03125 Z M 12.222656 11.035156 C 11.671875 10.160156 10.515625 9.890625 9.636719 10.441406 C 9.007812 10.832031 8.691406 11.542969 8.769531 12.234375 C 7.929688 13.492188 6.960938 14.667969 5.882812 15.730469 L 3.816406 17.765625 L 2.683594 18.472656 C 2.292969 18.714844 2.023438 19.097656 1.917969 19.542969 C 1.816406 19.992188 1.894531 20.453125 2.136719 20.839844 L 2.964844 22.167969 C 3.289062 22.6875 3.851562 22.972656 4.425781 22.972656 C 4.734375 22.972656 5.050781 22.890625 5.332031 22.714844 L 5.445312 22.640625 L 8.484375 24.679688 C 8.796875 24.890625 9.15625 25 9.527344 25 C 9.648438 25 9.769531 24.988281 9.890625 24.964844 C 10.382812 24.867188 10.808594 24.585938 11.085938 24.167969 C 11.664062 23.3125 11.433594 22.144531 10.574219 21.566406 L 9.589844 20.90625 C 10.894531 20.46875 12.242188 20.160156 13.605469 19.972656 C 13.90625 20.164062 14.257812 20.261719 14.609375 20.261719 C 14.949219 20.261719 15.292969 20.171875 15.601562 19.980469 C 16.027344 19.714844 16.320312 19.296875 16.433594 18.808594 C 16.546875 18.324219 16.464844 17.820312 16.199219 17.394531 Z M 4.671875 21.652344 C 4.453125 21.789062 4.160156 21.722656 4.023438 21.503906 L 3.195312 20.179688 C 3.128906 20.074219 3.109375 19.945312 3.136719 19.824219 C 3.164062 19.703125 3.238281 19.597656 3.34375 19.53125 L 4.007812 19.117188 L 5.332031 21.238281 Z M 9.878906 22.605469 C 10.164062 22.796875 10.242188 23.1875 10.050781 23.472656 C 9.957031 23.613281 9.816406 23.707031 9.652344 23.738281 C 9.488281 23.769531 9.320312 23.738281 9.183594 23.644531 L 6.644531 21.941406 L 8.113281 21.421875 Z M 8.78125 19.859375 L 6.457031 20.679688 L 5.003906 18.351562 L 6.757812 16.621094 C 7.71875 15.679688 8.59375 14.648438 9.375 13.554688 L 12.683594 18.851562 C 11.359375 19.074219 10.050781 19.410156 8.78125 19.859375 Z M 15.214844 18.53125 C 15.179688 18.691406 15.082031 18.832031 14.9375 18.917969 C 14.648438 19.101562 14.261719 19.011719 14.078125 18.71875 L 10.101562 12.359375 C 9.917969 12.070312 10.007812 11.683594 10.300781 11.5 C 10.402344 11.433594 10.519531 11.40625 10.628906 11.40625 C 10.839844 11.40625 11.042969 11.507812 11.160156 11.699219 L 15.136719 18.058594 C 15.226562 18.199219 15.253906 18.367188 15.214844 18.53125 Z M 32.734375 9.375 L 27.265625 9.375 C 26.015625 9.375 25 10.390625 25 11.640625 L 25 15.859375 C 25 17.109375 26.015625 18.125 27.265625 18.125 L 32.734375 18.125 C 33.984375 18.125 35 17.109375 35 15.859375 L 35 11.640625 C 35 10.390625 33.984375 9.375 32.734375 9.375 Z M 33.75 15.859375 C 33.75 16.417969 33.292969 16.875 32.734375 16.875 L 27.265625 16.875 C 26.707031 16.875 26.25 16.417969 26.25 15.859375 L 26.25 11.640625 C 26.25 11.082031 26.707031 10.625 27.265625 10.625 L 32.734375 10.625 C 33.292969 10.625 33.75 11.082031 33.75 11.640625 Z M 32.195312 13.214844 L 29.070312 11.339844 C 28.878906 11.222656 28.636719 11.21875 28.441406 11.332031 C 28.246094 11.441406 28.125 11.648438 28.125 11.875 L 28.125 15.625 C 28.125 15.851562 28.246094 16.058594 28.441406 16.167969 C 28.539062 16.222656 28.644531 16.25 28.75 16.25 C 28.859375 16.25 28.972656 16.21875 29.070312 16.160156 L 32.195312 14.285156 C 32.382812 14.171875 32.5 13.96875 32.5 13.75 C 32.5 13.53125 32.382812 13.328125 32.195312 13.214844 Z M 29.375 14.519531 L 29.375 12.980469 L 30.660156 13.75 Z M 22.5 2.5 C 22.5 2.15625 22.78125 1.875 23.125 1.875 L 25.625 1.875 C 25.96875 1.875 26.25 2.15625 26.25 2.5 C 26.25 2.84375 25.96875 3.125 25.625 3.125 L 23.125 3.125 C 22.78125 3.125 22.5 2.84375 22.5 2.5 Z M 19.375 4.375 C 19.375 4.03125 19.65625 3.75 20 3.75 L 25.625 3.75 C 25.96875 3.75 26.25 4.03125 26.25 4.375 C 26.25 4.71875 25.96875 5 25.625 5 L 20 5 C 19.65625 5 19.375 4.71875 19.375 4.375 Z M 19.375 6.25 C 19.375 5.90625 19.65625 5.625 20 5.625 L 25.625 5.625 C 25.96875 5.625 26.25 5.90625 26.25 6.25 C 26.25 6.59375 25.96875 6.875 25.625 6.875 L 20 6.875 C 19.65625 6.875 19.375 6.59375 19.375 6.25 Z M 26.09375 18.75 L 24.707031 18.75 L 24.503906 17.941406 C 24.347656 17.3125 23.785156 16.875 23.140625 16.875 L 21.859375 16.875 C 21.214844 16.875 20.652344 17.3125 20.496094 17.941406 L 20.292969 18.75 L 18.90625 18.75 C 18.128906 18.75 17.5 19.378906 17.5 20.15625 L 17.5 23.59375 C 17.5 24.367188 18.128906 25 18.90625 25 L 26.09375 25 C 26.867188 25 27.5 24.367188 27.5 23.59375 L 27.5 20.15625 C 27.5 19.378906 26.867188 18.75 26.09375 18.75 Z M 21.707031 18.242188 C 21.726562 18.171875 21.789062 18.125 21.859375 18.125 L 23.140625 18.125 C 23.210938 18.125 23.273438 18.171875 23.292969 18.242188 L 23.417969 18.75 L 21.582031 18.75 Z M 20.847656 23.75 L 18.90625 23.75 C 18.820312 23.75 18.75 23.679688 18.75 23.59375 L 18.75 20.15625 C 18.75 20.070312 18.820312 20 18.90625 20 L 20.847656 20 C 20.328125 20.457031 20 21.128906 20 21.875 C 20 22.621094 20.328125 23.292969 20.847656 23.75 Z M 22.5 23.125 C 21.8125 23.125 21.25 22.5625 21.25 21.875 C 21.25 21.1875 21.8125 20.625 22.5 20.625 C 23.1875 20.625 23.75 21.1875 23.75 21.875 C 23.75 22.5625 23.1875 23.125 22.5 23.125 Z M 26.25 23.59375 C 26.25 23.679688 26.179688 23.75 26.09375 23.75 L 24.152344 23.75 C 24.671875 23.292969 25 22.621094 25 21.875 C 25 21.128906 24.671875 20.457031 24.152344 20 L 24.214844 20 C 24.214844 20 24.21875 20 24.21875 20 C 24.21875 20 24.21875 20 24.222656 20 L 26.09375 20 C 26.179688 20 26.25 20.070312 26.25 20.15625 Z M 15 28.125 C 15 27.78125 15.28125 27.5 15.625 27.5 L 21.875 27.5 C 22.21875 27.5 22.5 27.78125 22.5 28.125 C 22.5 28.46875 22.21875 28.75 21.875 28.75 L 15.625 28.75 C 15.28125 28.75 15 28.46875 15 28.125 Z M 15 28.125 " clip-rule="nonzero"/></clipPath><linearGradient x1="3.690379" gradientTransform="matrix(0.078125, 0, 0, 0.078125, -1.249999, -1.249999)" y1="477.374622" x2="477.374635" gradientUnits="userSpaceOnUse" y2="3.690366" id="ed1b962fec"><stop stop-opacity="1" stop-color="rgb(36.898804%, 73.699951%, 89.7995%)" offset="0"/><stop stop-opacity="1" stop-color="rgb(36.898804%, 73.699951%, 89.7995%)" offset="0.0625"/><stop stop-opacity="1" stop-color="rgb(36.898804%, 73.699951%, 89.7995%)" offset="0.09375"/><stop stop-opacity="1" stop-color="rgb(38.60321%, 72.43042%, 89.801025%)" offset="0.0976563"/><stop stop-opacity="1" stop-color="rgb(40.307617%, 71.160889%, 89.802551%)" offset="0.101563"/><stop stop-opacity="1" stop-color="rgb(40.594482%, 70.93811%, 89.805603%)" offset="0.105469"/><stop stop-opacity="1" stop-color="rgb(40.881348%, 70.716858%, 89.810181%)" offset="0.109375"/><stop stop-opacity="1" stop-color="rgb(41.168213%, 70.49408%, 89.813232%)" offset="0.113281"/><stop stop-opacity="1" stop-color="rgb(41.455078%, 70.272827%, 89.81781%)" offset="0.117188"/><stop stop-opacity="1" stop-color="rgb(41.741943%, 70.050049%, 89.820862%)" offset="0.121094"/><stop stop-opacity="1" stop-color="rgb(42.028809%, 69.828796%, 89.825439%)" offset="0.125"/><stop stop-opacity="1" stop-color="rgb(42.315674%, 69.606018%, 89.828491%)" offset="0.128906"/><stop stop-opacity="1" stop-color="rgb(42.602539%, 69.384766%, 89.833069%)" offset="0.132812"/><stop stop-opacity="1" stop-color="rgb(42.889404%, 69.161987%, 89.836121%)" offset="0.136719"/><stop stop-opacity="1" stop-color="rgb(43.17627%, 68.940735%, 89.839172%)" offset="0.140625"/><stop stop-opacity="1" stop-color="rgb(43.463135%, 68.717957%, 89.842224%)" offset="0.144531"/><stop stop-opacity="1" stop-color="rgb(43.75%, 68.496704%, 89.846802%)" offset="0.148438"/><stop stop-opacity="1" stop-color="rgb(44.036865%, 68.273926%, 89.849854%)" offset="0.152344"/><stop stop-opacity="1" stop-color="rgb(44.32373%, 68.052673%, 89.854431%)" offset="0.15625"/><stop stop-opacity="1" stop-color="rgb(44.610596%, 67.829895%, 89.857483%)" offset="0.160156"/><stop stop-opacity="1" stop-color="rgb(44.897461%, 67.608643%, 89.862061%)" offset="0.164063"/><stop stop-opacity="1" stop-color="rgb(45.184326%, 67.385864%, 89.865112%)" offset="0.167969"/><stop stop-opacity="1" stop-color="rgb(45.471191%, 67.164612%, 89.86969%)" offset="0.171875"/><stop stop-opacity="1" stop-color="rgb(45.758057%, 66.941833%, 89.872742%)" offset="0.175781"/><stop stop-opacity="1" stop-color="rgb(46.044922%, 66.720581%, 89.875793%)" offset="0.179688"/><stop stop-opacity="1" stop-color="rgb(46.331787%, 66.497803%, 89.878845%)" offset="0.183594"/><stop stop-opacity="1" stop-color="rgb(46.618652%, 66.27655%, 89.883423%)" offset="0.1875"/><stop stop-opacity="1" stop-color="rgb(46.905518%, 66.053772%, 89.886475%)" offset="0.191406"/><stop stop-opacity="1" stop-color="rgb(47.192383%, 65.83252%, 89.891052%)" offset="0.195313"/><stop stop-opacity="1" stop-color="rgb(47.479248%, 65.609741%, 89.894104%)" offset="0.199219"/><stop stop-opacity="1" stop-color="rgb(47.766113%, 65.388489%, 89.898682%)" offset="0.203125"/><stop stop-opacity="1" stop-color="rgb(48.052979%, 65.16571%, 89.901733%)" offset="0.207031"/><stop stop-opacity="1" stop-color="rgb(48.339844%, 64.944458%, 89.904785%)" offset="0.210938"/><stop stop-opacity="1" stop-color="rgb(48.626709%, 64.72168%, 89.907837%)" offset="0.214844"/><stop stop-opacity="1" stop-color="rgb(48.913574%, 64.500427%, 89.912415%)" offset="0.21875"/><stop stop-opacity="1" stop-color="rgb(49.200439%, 64.277649%, 89.915466%)" offset="0.222656"/><stop stop-opacity="1" stop-color="rgb(49.487305%, 64.056396%, 89.920044%)" offset="0.226563"/><stop stop-opacity="1" stop-color="rgb(49.77417%, 63.833618%, 89.923096%)" offset="0.230469"/><stop stop-opacity="1" stop-color="rgb(50.061035%, 63.612366%, 89.927673%)" offset="0.234375"/><stop stop-opacity="1" stop-color="rgb(50.3479%, 63.389587%, 89.930725%)" offset="0.238281"/><stop stop-opacity="1" stop-color="rgb(50.634766%, 63.168335%, 89.935303%)" offset="0.242188"/><stop stop-opacity="1" stop-color="rgb(50.921631%, 62.945557%, 89.938354%)" offset="0.246094"/><stop stop-opacity="1" stop-color="rgb(51.210022%, 62.724304%, 89.941406%)" offset="0.25"/><stop stop-opacity="1" stop-color="rgb(51.496887%, 62.501526%, 89.944458%)" offset="0.253906"/><stop stop-opacity="1" stop-color="rgb(51.783752%, 62.280273%, 89.949036%)" offset="0.257813"/><stop stop-opacity="1" stop-color="rgb(52.070618%, 62.057495%, 89.952087%)" offset="0.261719"/><stop stop-opacity="1" stop-color="rgb(52.357483%, 61.836243%, 89.956665%)" offset="0.265625"/><stop stop-opacity="1" stop-color="rgb(52.644348%, 61.613464%, 89.959717%)" offset="0.269531"/><stop stop-opacity="1" stop-color="rgb(52.931213%, 61.392212%, 89.964294%)" offset="0.273438"/><stop stop-opacity="1" stop-color="rgb(53.218079%, 61.169434%, 89.967346%)" offset="0.277344"/><stop stop-opacity="1" stop-color="rgb(53.504944%, 60.948181%, 89.971924%)" offset="0.28125"/><stop stop-opacity="1" stop-color="rgb(53.791809%, 60.725403%, 89.974976%)" offset="0.285156"/><stop stop-opacity="1" stop-color="rgb(54.078674%, 60.50415%, 89.978027%)" offset="0.289062"/><stop stop-opacity="1" stop-color="rgb(54.36554%, 60.281372%, 89.981079%)" offset="0.292969"/><stop stop-opacity="1" stop-color="rgb(54.652405%, 60.06012%, 89.985657%)" offset="0.296875"/><stop stop-opacity="1" stop-color="rgb(54.93927%, 59.837341%, 89.988708%)" offset="0.300781"/><stop stop-opacity="1" stop-color="rgb(55.226135%, 59.616089%, 89.993286%)" offset="0.304688"/><stop stop-opacity="1" stop-color="rgb(55.513%, 59.393311%, 89.996338%)" offset="0.308594"/><stop stop-opacity="1" stop-color="rgb(55.799866%, 59.172058%, 90.000916%)" offset="0.3125"/><stop stop-opacity="1" stop-color="rgb(56.086731%, 58.94928%, 90.003967%)" offset="0.316406"/><stop stop-opacity="1" stop-color="rgb(56.373596%, 58.728027%, 90.008545%)" offset="0.320312"/><stop stop-opacity="1" stop-color="rgb(56.660461%, 58.505249%, 90.011597%)" offset="0.324219"/><stop stop-opacity="1" stop-color="rgb(56.947327%, 58.283997%, 90.014648%)" offset="0.328125"/><stop stop-opacity="1" stop-color="rgb(57.234192%, 58.061218%, 90.0177%)" offset="0.332031"/><stop stop-opacity="1" stop-color="rgb(57.521057%, 57.839966%, 90.022278%)" offset="0.335938"/><stop stop-opacity="1" stop-color="rgb(57.807922%, 57.617188%, 90.02533%)" offset="0.339844"/><stop stop-opacity="1" stop-color="rgb(58.094788%, 57.394409%, 90.029907%)" offset="0.34375"/><stop stop-opacity="1" stop-color="rgb(58.381653%, 57.171631%, 90.032959%)" offset="0.347656"/><stop stop-opacity="1" stop-color="rgb(58.668518%, 56.950378%, 90.037537%)" offset="0.351562"/><stop stop-opacity="1" stop-color="rgb(58.955383%, 56.7276%, 90.040588%)" offset="0.355469"/><stop stop-opacity="1" stop-color="rgb(59.242249%, 56.506348%, 90.04364%)" offset="0.359375"/><stop stop-opacity="1" stop-color="rgb(59.529114%, 56.283569%, 90.046692%)" offset="0.363281"/><stop stop-opacity="1" stop-color="rgb(59.815979%, 56.062317%, 90.05127%)" offset="0.367188"/><stop stop-opacity="1" stop-color="rgb(60.102844%, 55.839539%, 90.054321%)" offset="0.371094"/><stop stop-opacity="1" stop-color="rgb(60.389709%, 55.618286%, 90.058899%)" offset="0.375"/><stop stop-opacity="1" stop-color="rgb(60.676575%, 55.395508%, 90.061951%)" offset="0.378906"/><stop stop-opacity="1" stop-color="rgb(60.96344%, 55.174255%, 90.066528%)" offset="0.382812"/><stop stop-opacity="1" stop-color="rgb(61.250305%, 54.951477%, 90.06958%)" offset="0.386719"/><stop stop-opacity="1" stop-color="rgb(61.53717%, 54.730225%, 90.074158%)" offset="0.390625"/><stop stop-opacity="1" stop-color="rgb(61.824036%, 54.507446%, 90.077209%)" offset="0.394531"/><stop stop-opacity="1" stop-color="rgb(62.112427%, 54.286194%, 90.080261%)" offset="0.398438"/><stop stop-opacity="1" stop-color="rgb(62.399292%, 54.063416%, 90.083313%)" offset="0.402344"/><stop stop-opacity="1" stop-color="rgb(62.686157%, 53.842163%, 90.087891%)" offset="0.40625"/><stop stop-opacity="1" stop-color="rgb(62.973022%, 53.619385%, 90.090942%)" offset="0.410156"/><stop stop-opacity="1" stop-color="rgb(63.259888%, 53.398132%, 90.09552%)" offset="0.414062"/><stop stop-opacity="1" stop-color="rgb(63.546753%, 53.175354%, 90.098572%)" offset="0.417969"/><stop stop-opacity="1" stop-color="rgb(63.833618%, 52.954102%, 90.103149%)" offset="0.421875"/><stop stop-opacity="1" stop-color="rgb(64.120483%, 52.731323%, 90.106201%)" offset="0.425781"/><stop stop-opacity="1" stop-color="rgb(64.407349%, 52.510071%, 90.110779%)" offset="0.429688"/><stop stop-opacity="1" stop-color="rgb(64.694214%, 52.287292%, 90.113831%)" offset="0.433594"/><stop stop-opacity="1" stop-color="rgb(64.981079%, 52.06604%, 90.116882%)" offset="0.4375"/><stop stop-opacity="1" stop-color="rgb(65.267944%, 51.843262%, 90.119934%)" offset="0.441406"/><stop stop-opacity="1" stop-color="rgb(65.55481%, 51.622009%, 90.124512%)" offset="0.445312"/><stop stop-opacity="1" stop-color="rgb(65.841675%, 51.399231%, 90.127563%)" offset="0.449219"/><stop stop-opacity="1" stop-color="rgb(66.12854%, 51.177979%, 90.132141%)" offset="0.453125"/><stop stop-opacity="1" stop-color="rgb(66.415405%, 50.9552%, 90.135193%)" offset="0.457031"/><stop stop-opacity="1" stop-color="rgb(66.702271%, 50.733948%, 90.139771%)" offset="0.460938"/><stop stop-opacity="1" stop-color="rgb(66.989136%, 50.511169%, 90.142822%)" offset="0.464844"/><stop stop-opacity="1" stop-color="rgb(67.276001%, 50.289917%, 90.1474%)" offset="0.46875"/><stop stop-opacity="1" stop-color="rgb(67.562866%, 50.067139%, 90.150452%)" offset="0.472656"/><stop stop-opacity="1" stop-color="rgb(67.849731%, 49.845886%, 90.153503%)" offset="0.476563"/><stop stop-opacity="1" stop-color="rgb(68.136597%, 49.623108%, 90.156555%)" offset="0.480469"/><stop stop-opacity="1" stop-color="rgb(68.423462%, 49.401855%, 90.161133%)" offset="0.484375"/><stop stop-opacity="1" stop-color="rgb(68.710327%, 49.179077%, 90.164185%)" offset="0.488281"/><stop stop-opacity="1" stop-color="rgb(68.997192%, 48.957825%, 90.168762%)" offset="0.492188"/><stop stop-opacity="1" stop-color="rgb(69.284058%, 48.735046%, 90.171814%)" offset="0.496094"/><stop stop-opacity="1" stop-color="rgb(69.570923%, 48.513794%, 90.176392%)" offset="0.5"/><stop stop-opacity="1" stop-color="rgb(69.857788%, 48.291016%, 90.179443%)" offset="0.503906"/><stop stop-opacity="1" stop-color="rgb(70.144653%, 48.069763%, 90.184021%)" offset="0.507812"/><stop stop-opacity="1" stop-color="rgb(70.431519%, 47.846985%, 90.187073%)" offset="0.511719"/><stop stop-opacity="1" stop-color="rgb(70.718384%, 47.625732%, 90.190125%)" offset="0.515625"/><stop stop-opacity="1" stop-color="rgb(71.005249%, 47.402954%, 90.193176%)" offset="0.519531"/><stop stop-opacity="1" stop-color="rgb(71.292114%, 47.181702%, 90.197754%)" offset="0.523438"/><stop stop-opacity="1" stop-color="rgb(71.484375%, 47.04895%, 89.776611%)" offset="0.527344"/><stop stop-opacity="1" stop-color="rgb(71.676636%, 46.916199%, 89.356995%)" offset="0.53125"/><stop stop-opacity="1" stop-color="rgb(71.846008%, 46.803284%, 88.839722%)" offset="0.535156"/><stop stop-opacity="1" stop-color="rgb(72.016907%, 46.690369%, 88.323975%)" offset="0.539062"/><stop stop-opacity="1" stop-color="rgb(72.186279%, 46.577454%, 87.806702%)" offset="0.542969"/><stop stop-opacity="1" stop-color="rgb(72.357178%, 46.464539%, 87.290955%)" offset="0.546875"/><stop stop-opacity="1" stop-color="rgb(72.52655%, 46.351624%, 86.773682%)" offset="0.550781"/><stop stop-opacity="1" stop-color="rgb(72.697449%, 46.238708%, 86.257935%)" offset="0.554688"/><stop stop-opacity="1" stop-color="rgb(72.868347%, 46.125793%, 85.740662%)" offset="0.558594"/><stop stop-opacity="1" stop-color="rgb(73.039246%, 46.012878%, 85.223389%)" offset="0.5625"/><stop stop-opacity="1" stop-color="rgb(73.208618%, 45.899963%, 84.706116%)" offset="0.566406"/><stop stop-opacity="1" stop-color="rgb(73.379517%, 45.787048%, 84.190369%)" offset="0.570312"/><stop stop-opacity="1" stop-color="rgb(73.548889%, 45.674133%, 83.673096%)" offset="0.574219"/><stop stop-opacity="1" stop-color="rgb(73.719788%, 45.561218%, 83.157349%)" offset="0.578125"/><stop stop-opacity="1" stop-color="rgb(73.88916%, 45.448303%, 82.640076%)" offset="0.582031"/><stop stop-opacity="1" stop-color="rgb(74.060059%, 45.335388%, 82.124329%)" offset="0.585938"/><stop stop-opacity="1" stop-color="rgb(74.229431%, 45.222473%, 81.607056%)" offset="0.589844"/><stop stop-opacity="1" stop-color="rgb(74.40033%, 45.109558%, 81.089783%)" offset="0.59375"/><stop stop-opacity="1" stop-color="rgb(74.569702%, 44.996643%, 80.57251%)" offset="0.597656"/><stop stop-opacity="1" stop-color="rgb(74.740601%, 44.883728%, 80.056763%)" offset="0.601562"/><stop stop-opacity="1" stop-color="rgb(74.909973%, 44.770813%, 79.53949%)" offset="0.605469"/><stop stop-opacity="1" stop-color="rgb(75.080872%, 44.657898%, 79.023743%)" offset="0.609375"/><stop stop-opacity="1" stop-color="rgb(75.25177%, 44.544983%, 78.50647%)" offset="0.613281"/><stop stop-opacity="1" stop-color="rgb(75.422668%, 44.433594%, 77.990723%)" offset="0.617188"/><stop stop-opacity="1" stop-color="rgb(75.592041%, 44.320679%, 77.47345%)" offset="0.621094"/><stop stop-opacity="1" stop-color="rgb(75.762939%, 44.207764%, 76.957703%)" offset="0.625"/><stop stop-opacity="1" stop-color="rgb(75.932312%, 44.094849%, 76.44043%)" offset="0.628906"/><stop stop-opacity="1" stop-color="rgb(76.10321%, 43.981934%, 75.923157%)" offset="0.632812"/><stop stop-opacity="1" stop-color="rgb(76.272583%, 43.869019%, 75.405884%)" offset="0.636719"/><stop stop-opacity="1" stop-color="rgb(76.443481%, 43.756104%, 74.890137%)" offset="0.640625"/><stop stop-opacity="1" stop-color="rgb(76.612854%, 43.643188%, 74.372864%)" offset="0.644531"/><stop stop-opacity="1" stop-color="rgb(76.783752%, 43.530273%, 73.857117%)" offset="0.648438"/><stop stop-opacity="1" stop-color="rgb(76.953125%, 43.417358%, 73.339844%)" offset="0.652344"/><stop stop-opacity="1" stop-color="rgb(77.124023%, 43.304443%, 72.824097%)" offset="0.65625"/><stop stop-opacity="1" stop-color="rgb(77.294922%, 43.191528%, 72.306824%)" offset="0.660156"/><stop stop-opacity="1" stop-color="rgb(77.46582%, 43.078613%, 71.789551%)" offset="0.664062"/><stop stop-opacity="1" stop-color="rgb(77.635193%, 42.965698%, 71.272278%)" offset="0.667969"/><stop stop-opacity="1" stop-color="rgb(77.806091%, 42.852783%, 70.756531%)" offset="0.671875"/><stop stop-opacity="1" stop-color="rgb(77.975464%, 42.739868%, 70.239258%)" offset="0.675781"/><stop stop-opacity="1" stop-color="rgb(78.146362%, 42.626953%, 69.723511%)" offset="0.679688"/><stop stop-opacity="1" stop-color="rgb(78.315735%, 42.514038%, 69.206238%)" offset="0.683594"/><stop stop-opacity="1" stop-color="rgb(78.486633%, 42.401123%, 68.690491%)" offset="0.6875"/><stop stop-opacity="1" stop-color="rgb(78.656006%, 42.288208%, 68.173218%)" offset="0.691406"/><stop stop-opacity="1" stop-color="rgb(78.826904%, 42.176819%, 67.655945%)" offset="0.695312"/><stop stop-opacity="1" stop-color="rgb(78.996277%, 42.063904%, 67.138672%)" offset="0.699219"/><stop stop-opacity="1" stop-color="rgb(79.167175%, 41.950989%, 66.622925%)" offset="0.703125"/><stop stop-opacity="1" stop-color="rgb(79.336548%, 41.838074%, 66.105652%)" offset="0.707031"/><stop stop-opacity="1" stop-color="rgb(79.507446%, 41.725159%, 65.589905%)" offset="0.710938"/><stop stop-opacity="1" stop-color="rgb(79.678345%, 41.612244%, 65.072632%)" offset="0.714844"/><stop stop-opacity="1" stop-color="rgb(79.849243%, 41.499329%, 64.556885%)" offset="0.71875"/><stop stop-opacity="1" stop-color="rgb(80.018616%, 41.386414%, 64.039612%)" offset="0.722656"/><stop stop-opacity="1" stop-color="rgb(80.189514%, 41.273499%, 63.522339%)" offset="0.726562"/><stop stop-opacity="1" stop-color="rgb(80.358887%, 41.160583%, 63.005066%)" offset="0.730469"/><stop stop-opacity="1" stop-color="rgb(80.529785%, 41.047668%, 62.489319%)" offset="0.734375"/><stop stop-opacity="1" stop-color="rgb(80.699158%, 40.934753%, 61.972046%)" offset="0.738281"/><stop stop-opacity="1" stop-color="rgb(80.870056%, 40.821838%, 61.456299%)" offset="0.742188"/><stop stop-opacity="1" stop-color="rgb(81.039429%, 40.708923%, 60.939026%)" offset="0.746094"/><stop stop-opacity="1" stop-color="rgb(81.210327%, 40.596008%, 60.423279%)" offset="0.75"/><stop stop-opacity="1" stop-color="rgb(81.3797%, 40.483093%, 59.906006%)" offset="0.753906"/><stop stop-opacity="1" stop-color="rgb(81.550598%, 40.370178%, 59.388733%)" offset="0.757812"/><stop stop-opacity="1" stop-color="rgb(81.721497%, 40.257263%, 58.87146%)" offset="0.761719"/><stop stop-opacity="1" stop-color="rgb(81.892395%, 40.144348%, 58.355713%)" offset="0.765625"/><stop stop-opacity="1" stop-color="rgb(82.061768%, 40.031433%, 57.83844%)" offset="0.769531"/><stop stop-opacity="1" stop-color="rgb(82.232666%, 39.918518%, 57.322693%)" offset="0.773438"/><stop stop-opacity="1" stop-color="rgb(82.402039%, 39.805603%, 56.80542%)" offset="0.777344"/><stop stop-opacity="1" stop-color="rgb(82.572937%, 39.694214%, 56.289673%)" offset="0.78125"/><stop stop-opacity="1" stop-color="rgb(82.74231%, 39.581299%, 55.7724%)" offset="0.785156"/><stop stop-opacity="1" stop-color="rgb(82.913208%, 39.468384%, 55.255127%)" offset="0.789063"/><stop stop-opacity="1" stop-color="rgb(83.082581%, 39.355469%, 54.737854%)" offset="0.792969"/><stop stop-opacity="1" stop-color="rgb(83.253479%, 39.242554%, 54.222107%)" offset="0.796875"/><stop stop-opacity="1" stop-color="rgb(83.422852%, 39.129639%, 53.704834%)" offset="0.800781"/><stop stop-opacity="1" stop-color="rgb(83.59375%, 39.016724%, 53.189087%)" offset="0.804688"/><stop stop-opacity="1" stop-color="rgb(83.763123%, 38.903809%, 52.671814%)" offset="0.808594"/><stop stop-opacity="1" stop-color="rgb(83.934021%, 38.790894%, 52.156067%)" offset="0.8125"/><stop stop-opacity="1" stop-color="rgb(84.104919%, 38.677979%, 51.638794%)" offset="0.816406"/><stop stop-opacity="1" stop-color="rgb(84.275818%, 38.565063%, 51.121521%)" offset="0.820313"/><stop stop-opacity="1" stop-color="rgb(84.44519%, 38.452148%, 50.604248%)" offset="0.824219"/><stop stop-opacity="1" stop-color="rgb(84.616089%, 38.339233%, 50.088501%)" offset="0.828125"/><stop stop-opacity="1" stop-color="rgb(84.785461%, 38.226318%, 49.571228%)" offset="0.832031"/><stop stop-opacity="1" stop-color="rgb(84.95636%, 38.113403%, 49.055481%)" offset="0.835937"/><stop stop-opacity="1" stop-color="rgb(85.125732%, 38.000488%, 48.538208%)" offset="0.839844"/><stop stop-opacity="1" stop-color="rgb(85.296631%, 37.887573%, 48.022461%)" offset="0.84375"/><stop stop-opacity="1" stop-color="rgb(85.466003%, 37.774658%, 47.505188%)" offset="0.847656"/><stop stop-opacity="1" stop-color="rgb(85.636902%, 37.661743%, 46.987915%)" offset="0.851562"/><stop stop-opacity="1" stop-color="rgb(85.806274%, 37.548828%, 46.470642%)" offset="0.855469"/><stop stop-opacity="1" stop-color="rgb(85.977173%, 37.437439%, 45.954895%)" offset="0.859375"/><stop stop-opacity="1" stop-color="rgb(86.148071%, 37.324524%, 45.437622%)" offset="0.863281"/><stop stop-opacity="1" stop-color="rgb(86.31897%, 37.211609%, 44.921875%)" offset="0.867187"/><stop stop-opacity="1" stop-color="rgb(86.488342%, 37.098694%, 44.404602%)" offset="0.871094"/><stop stop-opacity="1" stop-color="rgb(86.659241%, 36.985779%, 43.888855%)" offset="0.875"/><stop stop-opacity="1" stop-color="rgb(86.828613%, 36.872864%, 43.371582%)" offset="0.878906"/><stop stop-opacity="1" stop-color="rgb(86.999512%, 36.759949%, 42.855835%)" offset="0.882812"/><stop stop-opacity="1" stop-color="rgb(87.168884%, 36.647034%, 42.338562%)" offset="0.886719"/><stop stop-opacity="1" stop-color="rgb(87.339783%, 36.534119%, 41.821289%)" offset="0.890625"/><stop stop-opacity="1" stop-color="rgb(87.509155%, 36.421204%, 41.304016%)" offset="0.894531"/><stop stop-opacity="1" stop-color="rgb(87.680054%, 36.308289%, 40.788269%)" offset="0.898437"/><stop stop-opacity="1" stop-color="rgb(87.849426%, 36.195374%, 40.270996%)" offset="0.902344"/><stop stop-opacity="1" stop-color="rgb(88.020325%, 36.082458%, 39.755249%)" offset="0.90625"/><stop stop-opacity="1" stop-color="rgb(88.189697%, 35.969543%, 39.237976%)" offset="0.910156"/><stop stop-opacity="1" stop-color="rgb(88.360596%, 35.856628%, 38.722229%)" offset="0.914062"/><stop stop-opacity="1" stop-color="rgb(88.479614%, 35.777283%, 38.360596%)" offset="0.917969"/><stop stop-opacity="1" stop-color="rgb(88.598633%, 35.699463%, 37.998962%)" offset="0.921875"/><stop stop-opacity="1" stop-color="rgb(88.598633%, 35.699463%, 37.998962%)" offset="0.9375"/><stop stop-opacity="1" stop-color="rgb(88.598633%, 35.699463%, 37.998962%)" offset="1"/></linearGradient></defs><g clip-path="url(#143c3ab8f5)"><g clip-path="url(#43c1a5434c)"><path fill="url(#ed1b962fec)" d="M 0 0 L 0 37.007812 L 37.007812 37.007812 L 37.007812 0 Z M 0 0 " fill-rule="nonzero"/></g></g></svg>