<svg xmlns="http://www.w3.org/2000/svg" xmlns:xlink="http://www.w3.org/1999/xlink" width="50" zoomAndPan="magnify" viewBox="0 0 37.5 37.499999" height="50" preserveAspectRatio="xMidYMid meet" version="1.0"><defs><clipPath id="dc145a60b2"><path d="M 10.863281 16.011719 L 28.269531 16.011719 L 28.269531 37.007812 L 10.863281 37.007812 Z M 10.863281 16.011719 " clip-rule="nonzero"/></clipPath><clipPath id="0bef29f660"><path d="M 10 7 L 31 7 L 31 37.007812 L 10 37.007812 Z M 10 7 " clip-rule="nonzero"/></clipPath><clipPath id="e06a8a79be"><path d="M 13 25 L 15 25 L 15 37.007812 L 13 37.007812 Z M 13 25 " clip-rule="nonzero"/></clipPath><clipPath id="55f3210c95"><path d="M 24 30 L 28 30 L 28 37.007812 L 24 37.007812 Z M 24 30 " clip-rule="nonzero"/></clipPath><clipPath id="ee206bf3a2"><path d="M 0.539062 14 L 12 14 L 12 32 L 0.539062 32 Z M 0.539062 14 " clip-rule="nonzero"/></clipPath><clipPath id="b003924a79"><path d="M 27.433594 14.871094 L 37.007812 14.871094 L 37.007812 31.863281 L 27.433594 31.863281 Z M 27.433594 14.871094 " clip-rule="nonzero"/></clipPath></defs><path fill="#fafafa" d="M 30.5625 18.375 C 30.421875 18.34375 30.277344 18.308594 30.132812 18.277344 C 29.949219 17.074219 29.589844 15.894531 28.917969 15.308594 C 28.890625 15.285156 28.863281 15.261719 28.832031 15.238281 C 28.832031 15.238281 28.828125 15.234375 28.828125 15.234375 C 28.824219 15.234375 28.824219 15.234375 28.824219 15.230469 C 28.820312 15.230469 28.820312 15.230469 28.820312 15.230469 C 28.820312 15.226562 28.816406 15.226562 28.816406 15.226562 C 28.816406 15.226562 28.816406 15.226562 28.8125 15.226562 C 28.8125 15.222656 28.8125 15.222656 28.8125 15.222656 C 28.808594 15.222656 28.808594 15.222656 28.808594 15.222656 C 28.808594 15.21875 28.808594 15.21875 28.804688 15.21875 C 28.804688 15.21875 28.804688 15.214844 28.800781 15.214844 C 28.800781 15.214844 28.800781 15.214844 28.796875 15.210938 C 28.796875 15.210938 28.792969 15.210938 28.792969 15.210938 C 28.792969 15.210938 28.792969 15.207031 28.792969 15.207031 C 28.792969 15.207031 28.789062 15.207031 28.789062 15.207031 C 28.789062 15.207031 28.789062 15.207031 28.789062 15.203125 C 28.785156 15.203125 28.785156 15.203125 28.785156 15.203125 C 28.785156 15.203125 28.785156 15.203125 28.78125 15.203125 C 28.78125 15.203125 28.78125 15.199219 28.78125 15.199219 C 28.78125 15.199219 28.78125 15.199219 28.777344 15.199219 C 28.777344 15.199219 28.777344 15.195312 28.777344 15.195312 C 28.777344 15.195312 28.773438 15.195312 28.773438 15.195312 C 28.773438 15.191406 28.769531 15.191406 28.769531 15.191406 C 28.769531 15.191406 28.765625 15.1875 28.765625 15.1875 C 28.765625 15.1875 28.765625 15.1875 28.761719 15.1875 C 28.761719 15.1875 28.761719 15.1875 28.761719 15.183594 C 28.757812 15.183594 28.753906 15.179688 28.75 15.179688 C 28.75 15.175781 28.75 15.175781 28.746094 15.175781 C 28.746094 15.175781 28.742188 15.171875 28.742188 15.171875 C 28.742188 15.171875 28.738281 15.171875 28.738281 15.167969 C 28.734375 15.167969 28.730469 15.164062 28.730469 15.164062 C 28.726562 15.160156 28.71875 15.15625 28.714844 15.152344 C 28.714844 15.152344 28.710938 15.148438 28.707031 15.148438 C 28.640625 15.101562 28.570312 15.054688 28.496094 15.011719 C 28.492188 15.007812 28.492188 15.007812 28.488281 15.003906 C 28.484375 15.003906 28.484375 15.003906 28.484375 15.003906 C 28.480469 15 28.476562 15 28.472656 14.996094 C 28.46875 14.992188 28.464844 14.992188 28.464844 14.988281 C 28.460938 14.988281 28.460938 14.988281 28.460938 14.988281 C 28.460938 14.988281 28.457031 14.988281 28.457031 14.988281 C 28.457031 14.984375 28.453125 14.984375 28.449219 14.980469 C 28.445312 14.980469 28.445312 14.980469 28.445312 14.980469 C 28.441406 14.976562 28.441406 14.976562 28.4375 14.976562 C 28.4375 14.976562 28.4375 14.972656 28.433594 14.972656 C 28.433594 14.972656 28.429688 14.972656 28.429688 14.96875 C 28.429688 14.96875 28.429688 14.96875 28.425781 14.96875 C 28.425781 14.96875 28.425781 14.96875 28.421875 14.96875 C 28.421875 14.964844 28.421875 14.964844 28.421875 14.964844 C 28.421875 14.964844 28.417969 14.964844 28.417969 14.964844 C 28.417969 14.964844 28.417969 14.960938 28.414062 14.960938 C 28.414062 14.960938 28.410156 14.960938 28.410156 14.960938 C 28.410156 14.960938 28.410156 14.957031 28.410156 14.957031 C 28.40625 14.957031 28.40625 14.957031 28.40625 14.957031 C 28.40625 14.957031 28.402344 14.957031 28.402344 14.953125 C 28.398438 14.953125 28.398438 14.953125 28.398438 14.953125 C 28.398438 14.953125 28.398438 14.953125 28.394531 14.953125 C 28.394531 14.949219 28.394531 14.949219 28.390625 14.949219 C 28.390625 14.949219 28.390625 14.945312 28.386719 14.945312 C 28.386719 14.945312 28.382812 14.945312 28.382812 14.945312 C 28.382812 14.945312 28.382812 14.941406 28.382812 14.941406 C 28.378906 14.941406 28.378906 14.941406 28.378906 14.941406 C 28.378906 14.941406 28.375 14.941406 28.375 14.941406 C 28.375 14.9375 28.375 14.9375 28.371094 14.9375 C 28.371094 14.9375 28.367188 14.9375 28.367188 14.933594 C 28.363281 14.933594 28.363281 14.933594 28.363281 14.933594 C 28.363281 14.933594 28.363281 14.933594 28.363281 14.929688 C 28.359375 14.929688 28.359375 14.929688 28.355469 14.929688 C 28.355469 14.929688 28.355469 14.925781 28.351562 14.925781 C 28.351562 14.925781 28.347656 14.925781 28.347656 14.921875 C 28.34375 14.921875 28.339844 14.917969 28.335938 14.917969 C 27.355469 14.375 25.996094 14.054688 24.769531 13.648438 L 24.769531 7.117188 C 29.398438 7.484375 33.230469 8.484375 35.273438 9.808594 L 35.273438 16.628906 C 34.8125 16.890625 34.289062 17.136719 33.714844 17.371094 C 32.800781 16.859375 31.625 16.40625 30.203125 16.019531 C 30.199219 16.019531 30.191406 16.019531 30.1875 16.019531 C 30.15625 16.019531 30.128906 16.039062 30.121094 16.066406 C 30.113281 16.101562 30.132812 16.140625 30.167969 16.148438 C 31.53125 16.519531 32.664062 16.953125 33.550781 17.4375 C 33.359375 17.511719 33.160156 17.585938 32.957031 17.660156 C 32.179688 17.304688 31.257812 16.980469 30.203125 16.691406 C 30.199219 16.691406 30.191406 16.691406 30.1875 16.691406 C 30.15625 16.691406 30.128906 16.710938 30.121094 16.738281 C 30.113281 16.773438 30.132812 16.8125 30.167969 16.820312 C 31.160156 17.089844 32.03125 17.394531 32.773438 17.726562 C 32.09375 17.960938 31.351562 18.179688 30.5625 18.375 " fill-opacity="1" fill-rule="nonzero"/><path fill="#a6b3dd" d="M 34.125 13.0625 C 34.109375 13.0625 34.097656 13.058594 34.085938 13.050781 C 33.136719 12.4375 31.820312 11.898438 30.167969 11.445312 C 30.132812 11.4375 30.113281 11.398438 30.121094 11.363281 C 30.132812 11.328125 30.167969 11.308594 30.203125 11.316406 C 31.871094 11.769531 33.199219 12.316406 34.160156 12.941406 C 34.191406 12.960938 34.203125 13 34.179688 13.03125 C 34.167969 13.050781 34.144531 13.0625 34.125 13.0625 " fill-opacity="1" fill-rule="nonzero"/><path fill="#a6b3dd" d="M 34.125 13.734375 C 34.109375 13.734375 34.097656 13.730469 34.085938 13.722656 C 33.136719 13.109375 31.820312 12.570312 30.167969 12.117188 C 30.132812 12.109375 30.113281 12.070312 30.121094 12.035156 C 30.132812 12 30.167969 11.980469 30.203125 11.988281 C 31.871094 12.441406 33.199219 12.988281 34.160156 13.609375 C 34.191406 13.632812 34.203125 13.671875 34.179688 13.703125 C 34.167969 13.722656 34.144531 13.734375 34.125 13.734375 " fill-opacity="1" fill-rule="nonzero"/><path fill="#a6b3dd" d="M 34.125 14.40625 C 34.109375 14.40625 34.097656 14.402344 34.085938 14.394531 C 33.136719 13.78125 31.820312 13.242188 30.167969 12.789062 C 30.132812 12.78125 30.113281 12.742188 30.121094 12.707031 C 30.132812 12.671875 30.167969 12.652344 30.203125 12.660156 C 31.871094 13.113281 33.199219 13.660156 34.160156 14.28125 C 34.191406 14.304688 34.203125 14.34375 34.179688 14.375 C 34.167969 14.394531 34.144531 14.40625 34.125 14.40625 " fill-opacity="1" fill-rule="nonzero"/><path fill="#a6b3dd" d="M 34.125 15.078125 C 34.109375 15.078125 34.097656 15.074219 34.085938 15.066406 C 33.136719 14.453125 31.820312 13.914062 30.167969 13.460938 C 30.132812 13.453125 30.113281 13.414062 30.121094 13.378906 C 30.132812 13.34375 30.167969 13.324219 30.203125 13.332031 C 31.871094 13.785156 33.199219 14.332031 34.160156 14.953125 C 34.191406 14.976562 34.203125 15.015625 34.179688 15.046875 C 34.167969 15.066406 34.144531 15.078125 34.125 15.078125 " fill-opacity="1" fill-rule="nonzero"/><path fill="#a6b3dd" d="M 34.125 15.75 C 34.109375 15.75 34.097656 15.746094 34.085938 15.738281 C 33.136719 15.125 31.820312 14.585938 30.167969 14.132812 C 30.132812 14.125 30.113281 14.085938 30.121094 14.050781 C 30.132812 14.015625 30.167969 13.996094 30.203125 14.003906 C 31.871094 14.457031 33.199219 15.003906 34.160156 15.625 C 34.191406 15.648438 34.203125 15.6875 34.179688 15.71875 C 34.167969 15.738281 34.144531 15.75 34.125 15.75 " fill-opacity="1" fill-rule="nonzero"/><path fill="#a6b3dd" d="M 34.125 16.421875 C 34.109375 16.421875 34.097656 16.417969 34.085938 16.410156 C 33.136719 15.796875 31.820312 15.257812 30.167969 14.804688 C 30.132812 14.796875 30.113281 14.757812 30.121094 14.722656 C 30.132812 14.6875 30.167969 14.667969 30.203125 14.675781 C 31.871094 15.128906 33.199219 15.675781 34.160156 16.296875 C 34.191406 16.320312 34.203125 16.359375 34.179688 16.390625 C 34.167969 16.410156 34.144531 16.421875 34.125 16.421875 " fill-opacity="1" fill-rule="nonzero"/><path fill="#a6b3dd" d="M 34.125 17.09375 C 34.109375 17.09375 34.097656 17.089844 34.085938 17.082031 C 33.136719 16.46875 31.820312 15.929688 30.167969 15.476562 C 30.132812 15.46875 30.113281 15.429688 30.121094 15.394531 C 30.132812 15.359375 30.167969 15.339844 30.203125 15.347656 C 31.871094 15.800781 33.199219 16.347656 34.160156 16.96875 C 34.191406 16.992188 34.203125 17.03125 34.179688 17.0625 C 34.167969 17.082031 34.144531 17.09375 34.125 17.09375 " fill-opacity="1" fill-rule="nonzero"/><path fill="#a6b3dd" d="M 34.125 17.765625 C 34.109375 17.765625 34.097656 17.761719 34.085938 17.753906 C 33.136719 17.140625 31.820312 16.601562 30.167969 16.148438 C 30.132812 16.140625 30.113281 16.101562 30.121094 16.066406 C 30.132812 16.03125 30.167969 16.011719 30.203125 16.019531 C 31.871094 16.472656 33.199219 17.019531 34.160156 17.640625 C 34.191406 17.664062 34.203125 17.703125 34.179688 17.734375 C 34.167969 17.753906 34.144531 17.765625 34.125 17.765625 " fill-opacity="1" fill-rule="nonzero"/><path fill="#a6b3dd" d="M 34.125 18.4375 C 34.109375 18.4375 34.097656 18.433594 34.085938 18.425781 C 33.136719 17.8125 31.820312 17.273438 30.167969 16.820312 C 30.132812 16.8125 30.113281 16.773438 30.121094 16.738281 C 30.132812 16.703125 30.167969 16.683594 30.203125 16.691406 C 31.871094 17.144531 33.199219 17.691406 34.160156 18.3125 C 34.191406 18.335938 34.203125 18.375 34.179688 18.40625 C 34.167969 18.425781 34.144531 18.4375 34.125 18.4375 " fill-opacity="1" fill-rule="nonzero"/><path fill="#a6b3dd" d="M 25.882812 14.617188 C 27.566406 14.730469 28.804688 15.117188 29.144531 15.230469 L 29.144531 11.242188 C 28.417969 11.023438 26.90625 10.769531 25.882812 10.699219 Z M 29.277344 15.421875 L 29.1875 15.390625 C 29.171875 15.382812 27.796875 14.871094 25.8125 14.746094 L 25.746094 14.742188 L 25.746094 10.554688 L 25.820312 10.558594 C 26.894531 10.628906 28.488281 10.894531 29.230469 11.128906 L 29.277344 11.144531 L 29.277344 15.421875 " fill-opacity="1" fill-rule="nonzero"/><path fill="#a6b3dd" d="M 33.386719 10.636719 C 33.378906 10.636719 33.371094 10.636719 33.363281 10.632812 C 31.597656 9.953125 29.273438 9.449219 26.644531 9.167969 C 26.609375 9.164062 26.582031 9.128906 26.585938 9.09375 C 26.589844 9.058594 26.625 9.03125 26.660156 9.035156 C 29.300781 9.316406 31.632812 9.824219 33.410156 10.507812 C 33.445312 10.519531 33.464844 10.558594 33.449219 10.59375 C 33.4375 10.621094 33.414062 10.636719 33.386719 10.636719 " fill-opacity="1" fill-rule="nonzero"/><path fill="#a6b3dd" d="M 32.933594 11.144531 C 32.925781 11.144531 32.917969 11.140625 32.910156 11.136719 C 31.382812 10.550781 29.371094 10.113281 27.097656 9.871094 C 27.0625 9.867188 27.035156 9.832031 27.039062 9.796875 C 27.042969 9.761719 27.074219 9.734375 27.113281 9.738281 C 29.398438 9.980469 31.417969 10.421875 32.960938 11.011719 C 32.992188 11.027344 33.011719 11.066406 32.996094 11.101562 C 32.988281 11.125 32.960938 11.144531 32.933594 11.144531 " fill-opacity="1" fill-rule="nonzero"/><path fill="#fafafa" d="M 6.160156 18.074219 C 4.882812 17.703125 3.773438 17.273438 2.871094 16.800781 L 2.871094 9.871094 C 4.886719 8.707031 8.433594 7.839844 12.664062 7.539062 L 12.664062 15.0625 C 11.898438 15.539062 11.128906 16.203125 10.5625 17.238281 C 8.9375 17.433594 7.449219 17.722656 6.160156 18.074219 " fill-opacity="1" fill-rule="nonzero"/><path fill="#a6b3dd" d="M 9.34375 12.328125 C 9.308594 12.328125 9.28125 12.304688 9.277344 12.273438 C 9.269531 12.234375 9.296875 12.203125 9.332031 12.195312 C 10.042969 12.089844 10.785156 12 11.539062 11.929688 C 11.578125 11.925781 11.609375 11.953125 11.613281 11.992188 C 11.617188 12.027344 11.589844 12.058594 11.550781 12.0625 C 10.800781 12.132812 10.058594 12.222656 9.351562 12.328125 C 9.347656 12.328125 9.347656 12.328125 9.34375 12.328125 " fill-opacity="1" fill-rule="nonzero"/><path fill="#a6b3dd" d="M 9.34375 13 C 9.308594 13 9.28125 12.976562 9.277344 12.945312 C 9.269531 12.90625 9.296875 12.875 9.332031 12.867188 C 10.042969 12.761719 10.785156 12.671875 11.539062 12.601562 C 11.578125 12.597656 11.609375 12.625 11.613281 12.664062 C 11.617188 12.699219 11.589844 12.730469 11.550781 12.734375 C 10.800781 12.804688 10.058594 12.894531 9.351562 13 C 9.347656 13 9.347656 13 9.34375 13 " fill-opacity="1" fill-rule="nonzero"/><path fill="#a6b3dd" d="M 9.34375 13.671875 C 9.308594 13.671875 9.28125 13.648438 9.277344 13.617188 C 9.269531 13.578125 9.296875 13.546875 9.332031 13.539062 C 10.042969 13.433594 10.785156 13.34375 11.539062 13.273438 C 11.578125 13.269531 11.609375 13.296875 11.613281 13.335938 C 11.617188 13.371094 11.589844 13.402344 11.550781 13.40625 C 10.800781 13.476562 10.058594 13.566406 9.351562 13.671875 C 9.347656 13.671875 9.347656 13.671875 9.34375 13.671875 " fill-opacity="1" fill-rule="nonzero"/><path fill="#a6b3dd" d="M 9.34375 14.34375 C 9.308594 14.34375 9.28125 14.320312 9.277344 14.289062 C 9.269531 14.25 9.296875 14.214844 9.332031 14.210938 C 10.042969 14.105469 10.785156 14.015625 11.539062 13.945312 C 11.578125 13.941406 11.609375 13.96875 11.613281 14.007812 C 11.617188 14.042969 11.589844 14.074219 11.550781 14.078125 C 10.800781 14.148438 10.058594 14.238281 9.351562 14.34375 C 9.347656 14.34375 9.347656 14.34375 9.34375 14.34375 " fill-opacity="1" fill-rule="nonzero"/><path fill="#a6b3dd" d="M 9.34375 15.015625 C 9.308594 15.015625 9.28125 14.992188 9.277344 14.960938 C 9.269531 14.921875 9.296875 14.886719 9.332031 14.882812 C 10.042969 14.777344 10.785156 14.6875 11.539062 14.617188 C 11.578125 14.613281 11.609375 14.640625 11.613281 14.679688 C 11.617188 14.714844 11.589844 14.746094 11.550781 14.75 C 10.800781 14.820312 10.058594 14.910156 9.351562 15.015625 C 9.347656 15.015625 9.347656 15.015625 9.34375 15.015625 " fill-opacity="1" fill-rule="nonzero"/><path fill="#a6b3dd" d="M 4.433594 10.886719 C 4.40625 10.886719 4.382812 10.871094 4.371094 10.84375 C 4.355469 10.808594 4.375 10.769531 4.410156 10.757812 C 6.1875 10.074219 8.519531 9.566406 11.160156 9.285156 C 11.195312 9.28125 11.230469 9.308594 11.234375 9.34375 C 11.238281 9.382812 11.210938 9.414062 11.175781 9.417969 C 8.546875 9.699219 6.222656 10.207031 4.457031 10.882812 C 4.449219 10.886719 4.441406 10.886719 4.433594 10.886719 " fill-opacity="1" fill-rule="nonzero"/><path fill="#a6b3dd" d="M 4.886719 11.394531 C 4.859375 11.394531 4.832031 11.378906 4.824219 11.351562 C 4.808594 11.316406 4.824219 11.277344 4.859375 11.265625 C 6.398438 10.671875 8.421875 10.230469 10.707031 9.988281 C 10.746094 9.984375 10.777344 10.011719 10.78125 10.046875 C 10.785156 10.085938 10.757812 10.117188 10.722656 10.121094 C 8.449219 10.363281 6.4375 10.800781 4.910156 11.390625 C 4.902344 11.394531 4.894531 11.394531 4.886719 11.394531 " fill-opacity="1" fill-rule="nonzero"/><path fill="#f4f5f9" d="M 8.410156 14.164062 C 8.390625 15.351562 7.492188 16.28125 6.417969 16.300781 C 5.34375 16.320312 4.371094 15.5 4.222656 14.402344 C 4.078125 13.304688 4.945312 12.257812 6.183594 12.144531 C 7.425781 12.035156 8.425781 12.972656 8.410156 14.164062 " fill-opacity="1" fill-rule="nonzero"/><path fill="#a6b3dd" d="M 8.101562 13.066406 C 7.722656 12.453125 6.996094 12.074219 6.183594 12.144531 C 6.230469 12.835938 6.269531 13.527344 6.308594 14.21875 C 6.886719 13.828125 7.484375 13.445312 8.101562 13.066406 " fill-opacity="1" fill-rule="nonzero"/><path fill="#bac6e2" d="M 8.371094 14.566406 C 8.394531 14.433594 8.410156 14.300781 8.410156 14.164062 C 8.410156 13.761719 8.304688 13.390625 8.109375 13.074219 C 7.488281 13.449219 6.890625 13.832031 6.308594 14.21875 C 7.003906 14.3125 7.6875 14.425781 8.371094 14.566406 " fill-opacity="1" fill-rule="nonzero"/><path fill="#dde2f2" d="M 7.914062 15.550781 C 8.136719 15.277344 8.296875 14.941406 8.371094 14.570312 C 7.6875 14.429688 7 14.3125 6.308594 14.21875 C 6.863281 14.640625 7.402344 15.082031 7.914062 15.550781 " fill-opacity="1" fill-rule="nonzero"/><g clip-path="url(#dc145a60b2)"><path fill="#a6b3dd" d="M 27.511719 29.320312 C 27.695312 26.636719 28.722656 24.058594 28.03125 22.386719 C 28.03125 22.386719 24.585938 15.609375 16.195312 16.042969 C 12.351562 16.242188 10.589844 18.640625 10.921875 20.800781 C 11.222656 22.75 13.652344 24.894531 13.652344 24.894531 C 13.675781 26.304688 13.675781 27.746094 13.652344 29.222656 C 13.605469 32.015625 13.328125 37.488281 13.328125 37.488281 L 27.726562 37.484375 C 27.726562 37.484375 27.296875 32.46875 27.511719 29.320312 " fill-opacity="1" fill-rule="nonzero"/></g><path fill="#7994d1" d="M 13.1875 21.65625 C 12.792969 22.160156 12.152344 22.953125 12.351562 23.238281 C 12.386719 23.285156 12.53125 23.160156 12.695312 23.035156 C 12.910156 22.871094 13.160156 22.710938 13.253906 22.917969 C 13.523438 23.507812 14.097656 24.34375 14.371094 24.527344 C 14.839844 24.84375 15.210938 25.046875 15.851562 25.046875 C 16.4375 25.046875 17.273438 25.90625 17.847656 26.578125 C 18.089844 26.1875 18.570312 25.613281 18.8125 25.222656 C 18.398438 24.59375 17.363281 23.222656 15.496094 22.476562 C 14.65625 22.140625 13.769531 21.691406 13.1875 21.65625 " fill-opacity="1" fill-rule="nonzero"/><g clip-path="url(#0bef29f660)"><path fill="#ffb6b6" d="M 20.953125 7.414062 C 21.027344 8.464844 21.199219 10.925781 22.269531 12.199219 C 24.183594 14.46875 26.695312 13.996094 28.492188 15.28125 C 30.46875 16.695312 30.074219 22.265625 29.808594 24.058594 C 29.253906 27.859375 27.648438 31.242188 26.1875 31.785156 C 23.808594 31.496094 21.875 29.796875 20.84375 28.8125 C 18.507812 26.589844 16.878906 24.621094 16.058594 23.660156 C 15.484375 22.988281 14.566406 22.792969 14.273438 22.605469 C 14.273438 22.605469 13.871094 22.695312 13.707031 22.414062 C 13.707031 22.414062 13.246094 22.480469 13.261719 22.0625 C 13.261719 22.0625 12.789062 22.070312 12.929688 21.714844 C 13.054688 21.410156 13.707031 20.652344 13.65625 20.601562 C 13.65625 20.601562 13.238281 20.734375 13.023438 21.0625 C 12.621094 21.671875 12.089844 22.519531 11.875 22.363281 C 11.578125 22.140625 12.5625 20.796875 12.757812 20.570312 C 13.140625 20.125 13.820312 19.65625 14.1875 19.554688 C 14.1875 19.554688 15.179688 19.554688 16.058594 21.0625 C 16.59375 21.984375 17.410156 22.410156 17.804688 22.644531 C 20.925781 24.515625 25.015625 27.652344 25.015625 27.652344 C 25.015625 27.652344 24.796875 24.097656 25.417969 21.558594 C 26.078125 17.511719 21.78125 15.777344 19.160156 15.933594 C 15.84375 16.132812 6.785156 18.46875 13.664062 24.902344 C 13.90625 26.445312 13.875 27.96875 13.925781 29.875 C 14.003906 32.839844 13.660156 37.484375 13.660156 37.484375 L 11.023438 37.464844 C 11.023438 37.464844 11.550781 33.558594 11.429688 31.015625 C 11.269531 27.746094 11.003906 27.359375 10.488281 23.699219 C 9.945312 19.835938 10.269531 17.460938 11.65625 16.042969 C 12.882812 14.789062 13.769531 14.617188 15.316406 13.648438 C 17.488281 12.289062 16.140625 10.828125 15.953125 9.667969 C 17.402344 9.21875 19.5 7.863281 20.953125 7.414062 " fill-opacity="1" fill-rule="nonzero"/></g><path fill="#f7a1a1" d="M 20.707031 7.484375 C 20.558594 7.894531 20.402344 8.410156 20.089844 8.96875 C 19.441406 10.128906 18.109375 11.097656 17.027344 11.667969 C 17.332031 12.058594 18.679688 12.09375 19.90625 11.683594 C 20.378906 11.527344 21.09375 11.414062 21.574219 10.9375 C 21.214844 9.683594 21.003906 8.148438 20.953125 7.414062 C 20.804688 7.460938 20.871094 7.425781 20.707031 7.484375 " fill-opacity="1" fill-rule="nonzero"/><path fill="#ffc7c7" d="M 16.246094 2.53125 C 15.527344 2.796875 14.957031 3.300781 14.71875 3.648438 C 14.507812 4.425781 14.328125 6.257812 14.828125 8.257812 C 15.269531 10.011719 16.148438 11.609375 16.625 11.664062 C 17.871094 11.808594 19.835938 10.617188 20.464844 9.226562 C 20.78125 8.53125 20.75 7.796875 20.726562 6.914062 C 20.699219 5.625 20.4375 4.582031 20.214844 3.894531 C 19.109375 2.597656 17.515625 2.0625 16.246094 2.53125 " fill-opacity="1" fill-rule="nonzero"/><path fill="#f7a1a1" d="M 29.964844 22.550781 C 29.988281 22.222656 30.007812 21.867188 30.019531 21.5 C 29.476562 21.839844 28.714844 22.191406 27.757812 22.296875 C 26.675781 22.414062 25.804688 22.167969 25.320312 21.988281 C 25.210938 22.535156 25.160156 22.839844 25.109375 23.410156 C 27.480469 23.652344 29.214844 22.960938 29.964844 22.550781 " fill-opacity="1" fill-rule="nonzero"/><path fill="#f7a1a1" d="M 13.664062 24.902344 C 13.496094 24.691406 13.339844 24.488281 13.195312 24.289062 C 12.878906 24.292969 12.527344 24.277344 12.148438 24.226562 C 11.492188 24.136719 10.9375 23.976562 10.503906 23.8125 C 10.574219 24.3125 10.640625 24.746094 10.703125 25.136719 C 11.046875 25.269531 11.53125 25.40625 12.117188 25.433594 C 12.757812 25.460938 13.300781 25.34375 13.707031 25.210938 C 13.695312 25.109375 13.679688 25.003906 13.664062 24.902344 " fill-opacity="1" fill-rule="nonzero"/><path fill="#4e62bd" d="M 21.671875 2.375 C 22.070312 2.886719 22.183594 3.5 22.0625 4.628906 C 21.976562 5.425781 21.59375 5.96875 21.441406 6.183594 C 21.191406 6.527344 20.921875 6.765625 20.726562 6.914062 C 20.433594 6.90625 20.515625 6.910156 20.21875 6.898438 C 20.207031 6.273438 20.449219 4.945312 20.117188 4.386719 C 19.488281 3.34375 17.628906 3.320312 16.769531 3.378906 C 15.921875 3.4375 15.390625 3.863281 14.964844 4.410156 C 14.285156 5.277344 14.695312 5.839844 14.335938 5.839844 C 13.410156 5.835938 12.242188 4.625 12.527344 3.078125 C 12.796875 1.617188 14.082031 0.570312 15.417969 0.5625 C 15.972656 0.558594 16.425781 0.835938 16.707031 1.0625 C 16.792969 0.894531 17.003906 0.546875 17.417969 0.328125 C 18.023438 0.0117188 18.878906 0.0664062 19.414062 0.609375 C 19.949219 1.15625 19.867188 1.894531 19.855469 2 C 19.953125 1.847656 21.007812 1.523438 21.671875 2.375 " fill-opacity="1" fill-rule="nonzero"/><path fill="#a6b3dd" d="M 28.832031 15.238281 C 27.378906 14.121094 24.492188 13.878906 22.886719 12.800781 C 22.316406 14.40625 21.011719 15.265625 19.308594 15.511719 C 17.605469 15.753906 15.960938 15.25 14.953125 13.871094 C 13.863281 14.53125 11.621094 15.074219 10.441406 17.46875 C 9.4375 19.503906 9.898438 23.910156 10.085938 24.378906 C 10.453125 24.601562 11.148438 24.953125 12.085938 25.03125 C 12.742188 25.085938 13.289062 24.992188 13.652344 24.894531 C 13.652344 24.894531 13.613281 24.710938 13.40625 24.484375 C 12.773438 23.796875 11.394531 22.300781 11.308594 20.863281 C 11.179688 18.742188 13.375 16.785156 18.390625 16.40625 C 20.722656 16.230469 24.960938 23.019531 24.960938 23.019531 C 25.585938 23.109375 26.597656 23.175781 27.789062 22.910156 C 29.039062 22.628906 29.71875 22.253906 30.25 21.890625 C 30.351562 21.527344 30.53125 16.542969 28.832031 15.238281 " fill-opacity="1" fill-rule="nonzero"/><path fill="#ffc7c7" d="M 20.335938 7.050781 C 20.726562 5.535156 21.15625 5.414062 21.527344 5.507812 C 21.851562 5.589844 21.890625 6.421875 21.894531 6.917969 C 21.898438 7.46875 21.71875 7.949219 21.34375 8.121094 C 20.898438 8.320312 20.347656 7.882812 20.316406 7.859375 " fill-opacity="1" fill-rule="nonzero"/><path fill="#4e62bd" d="M 18.644531 16.054688 C 16.460938 16.054688 14.996094 14.527344 14.738281 14.019531 C 14.730469 14.003906 14.738281 13.984375 14.753906 13.976562 C 14.765625 13.972656 14.785156 13.976562 14.792969 13.992188 C 15.046875 14.492188 16.492188 15.996094 18.644531 15.996094 C 18.671875 15.996094 18.695312 15.996094 18.71875 15.996094 C 20.261719 15.972656 21.371094 15.320312 22.03125 14.777344 C 22.800781 14.140625 23.238281 13.4375 23.347656 13.121094 C 23.351562 13.105469 23.367188 13.097656 23.382812 13.101562 C 23.402344 13.109375 23.410156 13.125 23.402344 13.140625 C 23.292969 13.464844 22.847656 14.179688 22.070312 14.824219 C 21.402344 15.371094 20.277344 16.03125 18.722656 16.054688 C 18.695312 16.054688 18.671875 16.054688 18.644531 16.054688 " fill-opacity="1" fill-rule="nonzero"/><path fill="#4e62bd" d="M 24.925781 22.988281 C 24.925781 22.988281 24.921875 22.988281 24.917969 22.988281 C 24.902344 22.984375 24.894531 22.96875 24.898438 22.953125 C 25.019531 22.460938 25.082031 21.957031 25.078125 21.453125 C 25.074219 20.820312 24.972656 20.195312 24.777344 19.59375 C 24.769531 19.578125 24.78125 19.558594 24.796875 19.554688 C 24.8125 19.550781 24.828125 19.558594 24.832031 19.574219 C 25.035156 20.183594 25.136719 20.816406 25.140625 21.453125 C 25.140625 21.960938 25.082031 22.472656 24.957031 22.96875 C 24.953125 22.980469 24.941406 22.988281 24.925781 22.988281 " fill-opacity="1" fill-rule="nonzero"/><path fill="#4e62bd" d="M 21.660156 5.324219 C 21.652344 5.320312 21.648438 5.320312 21.644531 5.316406 C 21.632812 5.304688 21.628906 5.285156 21.640625 5.273438 C 22.367188 4.4375 22.363281 2.808594 21.636719 2.109375 C 20.949219 1.441406 19.90625 1.71875 19.5625 2.046875 C 19.550781 2.058594 19.53125 2.058594 19.519531 2.046875 C 19.507812 2.035156 19.507812 2.015625 19.519531 2.003906 C 19.878906 1.660156 20.964844 1.375 21.679688 2.0625 C 22.042969 2.414062 22.246094 2.992188 22.246094 3.648438 C 22.242188 4.292969 22.03125 4.914062 21.6875 5.3125 C 21.679688 5.320312 21.667969 5.324219 21.660156 5.324219 " fill-opacity="1" fill-rule="nonzero"/><path fill="#f28f8f" d="M 26.324219 28.628906 C 26.308594 28.628906 26.296875 28.613281 26.296875 28.597656 C 26.296875 28.308594 25.421875 27.695312 25.019531 27.695312 C 25 27.695312 24.988281 27.679688 24.988281 27.664062 C 24.988281 27.648438 25 27.632812 25.019531 27.632812 C 25.457031 27.632812 26.355469 28.28125 26.355469 28.597656 C 26.355469 28.613281 26.34375 28.628906 26.324219 28.628906 " fill-opacity="1" fill-rule="nonzero"/><path fill="#f28f8f" d="M 21.484375 7.738281 C 21.476562 7.738281 21.46875 7.734375 21.464844 7.726562 C 21.457031 7.714844 21.457031 7.695312 21.46875 7.683594 C 21.707031 7.496094 21.679688 6.605469 21.542969 6.097656 C 21.480469 5.863281 21.414062 5.773438 21.371094 5.765625 C 21.1875 5.734375 20.902344 5.980469 20.796875 6.261719 C 20.792969 6.277344 20.773438 6.285156 20.757812 6.277344 C 20.742188 6.273438 20.734375 6.253906 20.742188 6.238281 C 20.855469 5.929688 21.167969 5.671875 21.382812 5.707031 C 21.464844 5.71875 21.539062 5.84375 21.601562 6.082031 C 21.738281 6.597656 21.773438 7.523438 21.507812 7.730469 C 21.5 7.738281 21.492188 7.738281 21.484375 7.738281 " fill-opacity="1" fill-rule="nonzero"/><path fill="#f28f8f" d="M 21.144531 7.613281 C 21.132812 7.613281 21.121094 7.609375 21.113281 7.605469 C 21.019531 7.578125 20.957031 7.5 20.953125 7.414062 C 20.945312 7.269531 21.003906 7.109375 21.050781 6.980469 C 21.085938 6.890625 21.125 6.777344 21.101562 6.753906 C 21.101562 6.753906 21.058594 6.71875 20.742188 6.9375 C 20.726562 6.949219 20.710938 6.945312 20.699219 6.933594 C 20.691406 6.917969 20.691406 6.898438 20.707031 6.890625 C 21.023438 6.667969 21.105469 6.675781 21.144531 6.710938 C 21.195312 6.761719 21.160156 6.859375 21.109375 7 C 21.0625 7.125 21.007812 7.277344 21.011719 7.414062 C 21.015625 7.472656 21.0625 7.527344 21.128906 7.546875 C 21.199219 7.570312 21.269531 7.546875 21.3125 7.484375 C 21.324219 7.46875 21.34375 7.464844 21.355469 7.476562 C 21.371094 7.484375 21.371094 7.503906 21.363281 7.519531 C 21.308594 7.59375 21.226562 7.625 21.144531 7.613281 " fill-opacity="1" fill-rule="nonzero"/><path fill="#7994d1" d="M 27.449219 30.675781 C 27.035156 31.242188 26.605469 31.628906 26.1875 31.785156 C 23.808594 31.496094 21.875 29.796875 20.84375 28.8125 C 19.101562 27.152344 17.734375 25.746094 16.761719 24.792969 C 16.171875 24.976562 18.953125 27.824219 20.546875 29.320312 C 22.28125 30.949219 24.804688 32.941406 26.023438 32.941406 C 26.738281 32.941406 26.996094 32.546875 27.460938 31.824219 C 27.480469 31.824219 27.429688 31.453125 27.449219 30.675781 " fill-opacity="1" fill-rule="nonzero"/><g clip-path="url(#e06a8a79be)"><path fill="#7994d1" d="M 14.375 35.59375 C 15.214844 34.023438 13.761719 33.402344 14.375 31.222656 C 14.953125 29.171875 14.09375 28.933594 13.78125 25.871094 C 13.867188 29.828125 13.328125 37.480469 13.328125 37.480469 C 13.328125 37.480469 14.425781 37.484375 14.429688 37.484375 C 14.429688 37.484375 13.820312 36.636719 14.375 35.59375 " fill-opacity="1" fill-rule="nonzero"/></g><g clip-path="url(#55f3210c95)"><path fill="#7994d1" d="M 27.445312 30.835938 C 26.554688 31.4375 26.292969 31.996094 26.234375 32.425781 C 26.148438 33.078125 26.820312 33.277344 26.75 33.574219 C 26.601562 34.234375 24.675781 34.242188 24.378906 35.53125 C 24.226562 36.195312 24.621094 36.890625 25.03125 37.476562 C 25.949219 37.484375 27.726562 37.484375 27.726562 37.484375 C 27.726562 37.484375 27.398438 33.285156 27.445312 30.835938 " fill-opacity="1" fill-rule="nonzero"/></g><path fill="#7994d1" d="M 28.832031 15.238281 C 27.792969 14.441406 26.027344 14.089844 24.515625 13.5625 C 24.953125 13.945312 25.929688 14.300781 26.507812 14.578125 C 27.574219 15.089844 28.519531 15.316406 28.941406 16.117188 C 29.382812 16.949219 28.609375 17.683594 28.851562 19.160156 C 28.988281 20.003906 29.792969 20.546875 29.734375 22.210938 C 29.925781 22.105469 30.09375 21.996094 30.25 21.890625 C 30.351562 21.527344 30.53125 16.542969 28.832031 15.238281 " fill-opacity="1" fill-rule="nonzero"/><path fill="#7994d1" d="M 12.863281 22.28125 C 12.863281 22.28125 13.777344 23.539062 13.664062 24.902344 C 13.664062 24.902344 13.925781 24.792969 14.054688 24.371094 C 14.285156 23.644531 13.707031 23.664062 13.722656 22.816406 C 13.441406 22.679688 13.179688 22.511719 12.863281 22.28125 " fill-opacity="1" fill-rule="nonzero"/><path fill="#4e62bd" d="M 13.867188 5.675781 C 13.636719 5.636719 13.320312 5.542969 12.976562 5.304688 C 12.554688 5.015625 12.285156 4.527344 12.222656 3.933594 C 12.160156 3.390625 12.277344 2.792969 12.539062 2.292969 C 13.1875 1.054688 14.527344 0.914062 14.679688 0.902344 L 14.683594 0.964844 C 14.535156 0.976562 13.226562 1.113281 12.589844 2.320312 C 12.089844 3.277344 12.109375 4.632812 13.011719 5.253906 C 13.566406 5.640625 14.042969 5.640625 14.175781 5.632812 L 14.179688 5.691406 C 14.125 5.695312 14.015625 5.699219 13.867188 5.675781 " fill-opacity="1" fill-rule="nonzero"/><path fill="#f28f8f" d="M 16.214844 8.867188 C 16 8.832031 15.855469 8.738281 15.808594 8.648438 C 15.757812 8.550781 15.820312 8.445312 15.90625 8.300781 C 16.035156 8.082031 16.234375 7.753906 16.207031 7.183594 C 16.207031 7.167969 16.21875 7.152344 16.234375 7.152344 C 16.25 7.152344 16.265625 7.164062 16.265625 7.179688 C 16.292969 7.769531 16.09375 8.105469 15.957031 8.332031 C 15.878906 8.464844 15.824219 8.550781 15.863281 8.621094 C 15.921875 8.730469 16.222656 8.894531 16.683594 8.785156 C 16.699219 8.78125 16.714844 8.789062 16.71875 8.804688 C 16.722656 8.820312 16.714844 8.839844 16.695312 8.84375 C 16.515625 8.886719 16.351562 8.890625 16.214844 8.867188 " fill-opacity="1" fill-rule="nonzero"/><path fill="#282828" d="M 18.242188 6.480469 C 18.261719 6.613281 18.148438 6.738281 17.992188 6.765625 C 17.832031 6.789062 17.6875 6.703125 17.667969 6.570312 C 17.644531 6.4375 17.757812 6.3125 17.917969 6.289062 C 18.074219 6.261719 18.222656 6.351562 18.242188 6.480469 " fill-opacity="1" fill-rule="nonzero"/><path fill="#282828" d="M 15.472656 6.929688 C 15.492188 7.050781 15.394531 7.167969 15.253906 7.191406 C 15.113281 7.214844 14.980469 7.128906 14.960938 7.007812 C 14.941406 6.882812 15.042969 6.765625 15.183594 6.746094 C 15.324219 6.722656 15.453125 6.804688 15.472656 6.929688 " fill-opacity="1" fill-rule="nonzero"/><path fill="#ffffff" d="M 16.074219 9.644531 C 16.074219 9.644531 16.269531 9.714844 16.613281 9.6875 C 17.109375 9.648438 17.660156 9.398438 18.03125 9.125 C 18.011719 9.175781 17.683594 9.972656 16.925781 10.082031 C 16.640625 10.125 16.378906 10.09375 16.257812 10 C 16.046875 9.832031 16.074219 9.644531 16.074219 9.644531 " fill-opacity="1" fill-rule="nonzero"/><path fill="#f28f8f" d="M 18.023438 9.183594 Z M 18.042969 9.066406 L 18.039062 9.0625 C 18.027344 9.0625 18.015625 9.066406 18.003906 9.070312 C 18 9.070312 18 9.074219 17.996094 9.074219 C 17.589844 9.378906 17.046875 9.59375 16.609375 9.628906 C 16.429688 9.644531 16.296875 9.628906 16.214844 9.617188 C 16.136719 9.605469 16.09375 9.589844 16.09375 9.589844 C 16.089844 9.589844 16.085938 9.585938 16.082031 9.585938 C 16.066406 9.585938 16.054688 9.585938 16.039062 9.59375 C 16.023438 9.605469 16.015625 9.621094 16.011719 9.636719 C 16.011719 9.648438 15.984375 9.859375 16.21875 10.046875 C 16.28125 10.09375 16.371094 10.128906 16.488281 10.148438 C 16.617188 10.167969 16.773438 10.167969 16.933594 10.144531 C 17.714844 10.027344 18.0625 9.214844 18.085938 9.148438 C 18.089844 9.144531 18.089844 9.140625 18.09375 9.132812 C 18.097656 9.101562 18.074219 9.070312 18.042969 9.066406 Z M 18.03125 9.125 C 18.011719 9.175781 17.683594 9.972656 16.925781 10.082031 C 16.769531 10.105469 16.621094 10.109375 16.496094 10.089844 C 16.394531 10.074219 16.3125 10.042969 16.257812 10 C 16.046875 9.832031 16.074219 9.644531 16.074219 9.644531 C 16.074219 9.644531 16.117188 9.664062 16.203125 9.675781 C 16.296875 9.691406 16.433594 9.703125 16.613281 9.6875 C 17.109375 9.648438 17.660156 9.398438 18.03125 9.125 M 18.03125 9.125 L 18.03125 9.125 " fill-opacity="1" fill-rule="nonzero"/><path fill="#282828" d="M 17.054688 5.746094 C 17.222656 5.597656 17.414062 5.480469 17.621094 5.402344 C 17.726562 5.363281 17.832031 5.335938 17.941406 5.316406 C 17.996094 5.3125 18.050781 5.304688 18.105469 5.300781 L 18.1875 5.296875 L 18.269531 5.300781 C 18.378906 5.304688 18.488281 5.324219 18.589844 5.347656 C 18.695312 5.378906 18.796875 5.414062 18.894531 5.460938 C 19.089844 5.550781 19.265625 5.675781 19.417969 5.824219 C 19.257812 5.683594 19.074219 5.578125 18.878906 5.5 C 18.78125 5.464844 18.679688 5.433594 18.578125 5.414062 C 18.472656 5.398438 18.371094 5.386719 18.269531 5.390625 L 18.191406 5.394531 L 18.113281 5.402344 C 18.0625 5.410156 18.011719 5.417969 17.960938 5.429688 C 17.863281 5.453125 17.765625 5.484375 17.671875 5.527344 C 17.488281 5.613281 17.320312 5.730469 17.183594 5.875 C 17.148438 5.914062 17.089844 5.914062 17.054688 5.878906 C 17.019531 5.84375 17.015625 5.789062 17.050781 5.75 L 17.054688 5.746094 " fill-opacity="1" fill-rule="nonzero"/><path fill="#282828" d="M 14.597656 5.929688 C 14.710938 5.863281 14.832031 5.8125 14.960938 5.785156 C 15.089844 5.761719 15.21875 5.753906 15.347656 5.769531 C 15.472656 5.785156 15.597656 5.824219 15.710938 5.875 C 15.824219 5.929688 15.929688 5.996094 16.019531 6.074219 C 15.917969 6.007812 15.808594 5.957031 15.695312 5.917969 C 15.578125 5.882812 15.460938 5.863281 15.339844 5.859375 C 15.222656 5.859375 15.105469 5.882812 14.996094 5.917969 C 14.890625 5.953125 14.789062 6.007812 14.699219 6.078125 C 14.660156 6.109375 14.601562 6.101562 14.570312 6.0625 C 14.539062 6.023438 14.546875 5.96875 14.585938 5.9375 C 14.589844 5.933594 14.59375 5.933594 14.59375 5.929688 L 14.597656 5.929688 " fill-opacity="1" fill-rule="nonzero"/><path fill="#f28f8f" d="M 14.707031 6.96875 C 14.703125 6.96875 14.699219 6.964844 14.699219 6.964844 C 14.683594 6.957031 14.679688 6.9375 14.6875 6.921875 L 14.6875 6.917969 C 14.738281 6.828125 14.929688 6.523438 15.28125 6.554688 C 15.425781 6.566406 15.539062 6.636719 15.648438 6.707031 C 15.726562 6.753906 15.800781 6.796875 15.875 6.816406 C 15.890625 6.820312 15.902344 6.835938 15.898438 6.855469 C 15.894531 6.871094 15.875 6.878906 15.859375 6.875 C 15.777344 6.855469 15.699219 6.808594 15.617188 6.757812 C 15.511719 6.691406 15.40625 6.625 15.273438 6.613281 C 14.964844 6.585938 14.789062 6.863281 14.742188 6.949219 L 14.738281 6.953125 C 14.734375 6.964844 14.71875 6.96875 14.707031 6.96875 " fill-opacity="1" fill-rule="nonzero"/><path fill="#f28f8f" d="M 17.539062 6.503906 C 17.535156 6.503906 17.535156 6.503906 17.53125 6.5 C 17.515625 6.492188 17.511719 6.476562 17.519531 6.460938 C 17.519531 6.460938 17.519531 6.457031 17.523438 6.453125 C 17.636719 6.167969 17.847656 6.042969 18.117188 6.09375 C 18.3125 6.128906 18.433594 6.214844 18.523438 6.277344 C 18.59375 6.328125 18.644531 6.363281 18.695312 6.355469 C 18.710938 6.351562 18.726562 6.363281 18.730469 6.378906 C 18.730469 6.394531 18.722656 6.410156 18.703125 6.414062 C 18.628906 6.425781 18.566406 6.382812 18.488281 6.328125 C 18.398438 6.265625 18.289062 6.1875 18.105469 6.152344 C 17.863281 6.105469 17.679688 6.21875 17.578125 6.472656 C 17.574219 6.480469 17.574219 6.488281 17.570312 6.488281 C 17.566406 6.5 17.550781 6.507812 17.539062 6.503906 " fill-opacity="1" fill-rule="nonzero"/><path fill="#f7a1a1" d="M 17.839844 25.109375 C 17.839844 25.109375 16.378906 23.460938 16.011719 23.011719 C 15.75 22.6875 15.5 22.425781 14.976562 22.480469 C 14.804688 22.5 14.65625 22.664062 14.53125 22.730469 C 14.847656 22.910156 15.5 23.007812 16.058594 23.660156 C 16.878906 24.621094 18.507812 26.589844 20.84375 28.8125 C 21.875 29.796875 23.808594 31.496094 26.1875 31.785156 C 26.191406 31.785156 26.199219 31.78125 26.207031 31.777344 C 25.785156 31.480469 24.570312 31.09375 23.4375 30.398438 C 22.53125 29.847656 20.0625 27.632812 17.839844 25.109375 " fill-opacity="1" fill-rule="nonzero"/><path fill="#f28f8f" d="M 13.257812 22.097656 C 13.25 22.097656 13.246094 22.09375 13.238281 22.089844 C 13.226562 22.082031 13.226562 22.0625 13.234375 22.054688 L 13.984375 21.109375 C 13.996094 21.097656 14.011719 21.09375 14.023438 21.101562 C 14.035156 21.113281 14.035156 21.128906 14.027344 21.140625 L 13.277344 22.085938 C 13.273438 22.09375 13.265625 22.097656 13.257812 22.097656 " fill-opacity="1" fill-rule="nonzero"/><path fill="#f28f8f" d="M 13.679688 22.40625 C 13.675781 22.40625 13.667969 22.40625 13.664062 22.402344 C 13.652344 22.390625 13.652344 22.375 13.660156 22.363281 L 14.363281 21.453125 C 14.371094 21.441406 14.390625 21.441406 14.402344 21.449219 C 14.414062 21.457031 14.414062 21.476562 14.40625 21.488281 L 13.703125 22.394531 C 13.699219 22.402344 13.6875 22.40625 13.679688 22.40625 " fill-opacity="1" fill-rule="nonzero"/><path fill="#f28f8f" d="M 12.046875 22.125 C 12.003906 22.222656 11.925781 22.28125 11.878906 22.261719 C 11.828125 22.238281 11.824219 22.140625 11.871094 22.042969 C 11.914062 21.949219 11.992188 21.886719 12.039062 21.910156 C 12.089844 21.933594 12.09375 22.03125 12.046875 22.125 " fill-opacity="1" fill-rule="nonzero"/><path fill="#f28f8f" d="M 14.492188 22.644531 C 14.320312 22.644531 14.207031 22.609375 14.164062 22.542969 C 14.128906 22.496094 14.140625 22.445312 14.148438 22.425781 C 14.21875 22.261719 14.398438 22.0625 14.53125 21.917969 C 14.578125 21.863281 14.621094 21.816406 14.644531 21.789062 C 14.652344 21.777344 14.667969 21.773438 14.679688 21.78125 C 14.691406 21.792969 14.695312 21.808594 14.6875 21.820312 C 14.660156 21.851562 14.621094 21.898438 14.570312 21.953125 C 14.441406 22.09375 14.265625 22.289062 14.195312 22.445312 C 14.195312 22.445312 14.183594 22.480469 14.207031 22.511719 C 14.230469 22.542969 14.300781 22.597656 14.527344 22.589844 C 14.597656 22.589844 14.796875 22.539062 14.851562 22.425781 C 14.882812 22.371094 14.871094 22.308594 14.820312 22.234375 C 14.8125 22.222656 14.816406 22.203125 14.828125 22.195312 C 14.839844 22.1875 14.855469 22.191406 14.863281 22.203125 C 14.925781 22.292969 14.9375 22.378906 14.902344 22.453125 C 14.828125 22.589844 14.597656 22.640625 14.527344 22.644531 C 14.515625 22.644531 14.503906 22.644531 14.492188 22.644531 " fill-opacity="1" fill-rule="nonzero"/><g clip-path="url(#ee206bf3a2)"><path fill="#fafafa" d="M 11.445312 31.695312 C 5.863281 30.933594 1.699219 29.339844 0.539062 27.410156 L 0.539062 14.878906 C 0.953125 15.570312 1.757812 16.21875 2.871094 16.800781 L 2.871094 19.367188 C 3.71875 18.878906 4.835938 18.441406 6.160156 18.074219 C 7.3125 18.414062 8.601562 18.707031 9.996094 18.945312 C 9.613281 21.128906 9.933594 24.003906 10.085938 24.378906 C 10.222656 24.460938 10.40625 24.5625 10.628906 24.660156 C 11.050781 27.457031 11.285156 28.058594 11.429688 31.015625 C 11.441406 31.234375 11.445312 31.460938 11.445312 31.695312 " fill-opacity="1" fill-rule="nonzero"/></g><path fill="#f8f8f8" d="M 2.871094 19.367188 L 2.871094 16.800781 C 3.773438 17.273438 4.882812 17.703125 6.160156 18.074219 C 4.835938 18.441406 3.71875 18.878906 2.871094 19.367188 " fill-opacity="1" fill-rule="nonzero"/><path fill="#dfe2ef" d="M 16.496094 32.132812 C 15.726562 32.101562 14.96875 32.054688 14.234375 31.996094 C 14.253906 31.761719 14.296875 31.503906 14.375 31.222656 C 14.953125 29.171875 14.09375 28.933594 13.78125 25.871094 C 13.753906 25.546875 13.714844 25.222656 13.664062 24.902344 C 13.660156 24.894531 13.652344 24.890625 13.648438 24.886719 C 13.640625 24.84375 13.585938 24.679688 13.40625 24.484375 C 12.773438 23.796875 11.394531 22.300781 11.308594 20.863281 C 11.273438 20.289062 11.410156 19.726562 11.726562 19.203125 C 13.226562 19.398438 14.828125 19.535156 16.496094 19.601562 L 16.496094 21.660156 C 16.339844 21.488281 16.191406 21.289062 16.058594 21.0625 C 15.179688 19.554688 14.1875 19.554688 14.1875 19.554688 C 13.820312 19.65625 13.140625 20.125 12.757812 20.570312 C 12.5625 20.796875 11.578125 22.140625 11.875 22.363281 C 11.894531 22.375 11.914062 22.382812 11.933594 22.382812 C 12.175781 22.382812 12.652344 21.621094 13.023438 21.0625 C 13.238281 20.734375 13.65625 20.601562 13.65625 20.601562 C 13.707031 20.652344 13.054688 21.410156 12.929688 21.714844 C 12.882812 21.832031 12.902344 21.910156 12.949219 21.960938 C 12.585938 22.4375 12.1875 23.007812 12.351562 23.238281 C 12.359375 23.246094 12.363281 23.25 12.375 23.25 C 12.425781 23.25 12.554688 23.140625 12.695312 23.035156 C 12.835938 22.925781 12.996094 22.820312 13.113281 22.820312 C 13.144531 22.820312 13.167969 22.824219 13.191406 22.839844 C 13.441406 23.335938 13.730469 24.097656 13.664062 24.902344 C 13.664062 24.902344 13.925781 24.792969 14.054688 24.371094 C 14.070312 24.328125 14.082031 24.285156 14.089844 24.246094 C 14.199219 24.375 14.296875 24.476562 14.371094 24.527344 C 14.839844 24.84375 15.210938 25.046875 15.851562 25.046875 C 16.042969 25.046875 16.265625 25.140625 16.496094 25.289062 L 16.496094 32.132812 " fill-opacity="1" fill-rule="nonzero"/><path fill="#d1d9ec" d="M 16.496094 25.289062 C 16.265625 25.140625 16.042969 25.046875 15.851562 25.046875 C 15.210938 25.046875 14.839844 24.84375 14.371094 24.527344 C 14.296875 24.476562 14.199219 24.375 14.089844 24.246094 C 14.214844 23.640625 13.707031 23.609375 13.722656 22.816406 C 13.441406 22.679688 13.179688 22.511719 12.863281 22.28125 C 12.863281 22.28125 13.019531 22.496094 13.191406 22.839844 C 13.167969 22.824219 13.144531 22.820312 13.113281 22.820312 C 12.996094 22.820312 12.835938 22.925781 12.695312 23.035156 C 12.554688 23.140625 12.425781 23.25 12.375 23.25 C 12.363281 23.25 12.359375 23.246094 12.351562 23.238281 C 12.1875 23.007812 12.585938 22.4375 12.949219 21.960938 C 13.023438 22.042969 13.167969 22.058594 13.230469 22.0625 C 13.226562 22.070312 13.230469 22.082031 13.238281 22.089844 C 13.246094 22.09375 13.25 22.097656 13.257812 22.097656 C 13.257812 22.097656 13.257812 22.097656 13.261719 22.09375 C 13.265625 22.382812 13.515625 22.417969 13.640625 22.417969 C 13.679688 22.417969 13.707031 22.414062 13.707031 22.414062 C 13.808594 22.585938 13.996094 22.621094 14.125 22.621094 C 14.183594 22.621094 14.230469 22.613281 14.253906 22.609375 C 14.269531 22.617188 14.289062 22.621094 14.308594 22.625 C 14.367188 22.660156 14.441406 22.691406 14.53125 22.730469 C 14.675781 22.808594 14.882812 22.875 15.121094 22.980469 C 15.441406 23.132812 15.789062 23.34375 16.058594 23.660156 C 16.183594 23.808594 16.332031 23.980469 16.496094 24.175781 L 16.496094 25.289062 " fill-opacity="1" fill-rule="nonzero"/><path fill="#f9e3e3" d="M 13.644531 31.945312 C 12.894531 31.878906 12.15625 31.792969 11.445312 31.695312 C 11.445312 31.460938 11.441406 31.234375 11.429688 31.015625 C 11.285156 28.058594 11.050781 27.457031 10.628906 24.660156 C 10.652344 24.828125 10.679688 24.984375 10.703125 25.136719 C 11.046875 25.269531 11.53125 25.40625 12.117188 25.433594 C 12.183594 25.433594 12.246094 25.4375 12.308594 25.4375 C 12.867188 25.4375 13.34375 25.332031 13.707031 25.210938 C 13.695312 25.109375 13.679688 25.003906 13.664062 24.902344 C 13.714844 25.222656 13.753906 25.546875 13.78125 25.871094 C 13.816406 27.527344 13.742188 29.828125 13.644531 31.945312 M 16.058594 23.660156 C 15.789062 23.34375 15.441406 23.132812 15.121094 22.980469 C 15.414062 23.109375 15.75 23.300781 16.058594 23.660156 M 16.496094 23.578125 C 16.289062 23.339844 16.109375 23.132812 16.011719 23.011719 C 15.773438 22.71875 15.546875 22.472656 15.113281 22.472656 C 15.070312 22.472656 15.023438 22.476562 14.976562 22.480469 C 14.929688 22.484375 14.886719 22.5 14.847656 22.519531 C 14.867188 22.5 14.886719 22.476562 14.902344 22.453125 C 14.9375 22.378906 14.925781 22.292969 14.863281 22.203125 C 14.859375 22.195312 14.851562 22.191406 14.84375 22.191406 C 14.835938 22.191406 14.832031 22.195312 14.828125 22.195312 C 14.816406 22.203125 14.8125 22.222656 14.820312 22.234375 C 14.871094 22.308594 14.882812 22.371094 14.851562 22.425781 C 14.796875 22.539062 14.597656 22.589844 14.527344 22.589844 C 14.515625 22.589844 14.503906 22.589844 14.492188 22.589844 C 14.292969 22.589844 14.226562 22.542969 14.207031 22.511719 C 14.183594 22.480469 14.195312 22.445312 14.195312 22.445312 C 14.265625 22.289062 14.441406 22.09375 14.570312 21.953125 C 14.621094 21.898438 14.660156 21.851562 14.6875 21.820312 C 14.695312 21.808594 14.691406 21.792969 14.679688 21.78125 C 14.675781 21.777344 14.671875 21.777344 14.664062 21.777344 C 14.65625 21.777344 14.648438 21.78125 14.644531 21.789062 C 14.621094 21.816406 14.578125 21.863281 14.53125 21.917969 C 14.398438 22.0625 14.21875 22.261719 14.148438 22.425781 C 14.140625 22.445312 14.128906 22.496094 14.164062 22.542969 C 14.183594 22.570312 14.210938 22.59375 14.253906 22.609375 C 14.230469 22.613281 14.183594 22.621094 14.125 22.621094 C 13.996094 22.621094 13.808594 22.585938 13.707031 22.414062 C 13.707031 22.414062 13.679688 22.417969 13.640625 22.417969 C 13.515625 22.417969 13.265625 22.382812 13.261719 22.09375 C 13.265625 22.09375 13.273438 22.089844 13.277344 22.085938 L 14.027344 21.140625 C 14.035156 21.128906 14.035156 21.113281 14.023438 21.101562 C 14.019531 21.097656 14.011719 21.097656 14.007812 21.097656 C 14 21.097656 13.992188 21.101562 13.984375 21.109375 L 13.234375 22.054688 C 13.234375 22.054688 13.230469 22.058594 13.230469 22.0625 C 13.167969 22.058594 13.023438 22.042969 12.949219 21.960938 C 12.902344 21.910156 12.882812 21.832031 12.929688 21.714844 C 13.054688 21.410156 13.707031 20.652344 13.65625 20.601562 C 13.65625 20.601562 13.238281 20.734375 13.023438 21.0625 C 12.652344 21.621094 12.175781 22.382812 11.933594 22.382812 C 11.914062 22.382812 11.894531 22.375 11.875 22.363281 C 11.578125 22.140625 12.5625 20.796875 12.757812 20.570312 C 13.140625 20.125 13.820312 19.65625 14.1875 19.554688 C 14.1875 19.554688 15.179688 19.554688 16.058594 21.0625 C 16.191406 21.289062 16.339844 21.488281 16.496094 21.660156 L 16.496094 23.578125 M 14.386719 21.445312 C 14.378906 21.445312 14.371094 21.449219 14.363281 21.453125 L 13.660156 22.363281 C 13.652344 22.375 13.652344 22.390625 13.664062 22.402344 C 13.667969 22.40625 13.675781 22.40625 13.679688 22.40625 C 13.6875 22.40625 13.699219 22.402344 13.703125 22.394531 L 14.40625 21.488281 C 14.414062 21.476562 14.414062 21.457031 14.402344 21.449219 C 14.398438 21.445312 14.390625 21.445312 14.386719 21.445312 M 12.015625 21.90625 C 11.96875 21.90625 11.90625 21.960938 11.871094 22.042969 C 11.824219 22.140625 11.828125 22.238281 11.878906 22.261719 C 11.882812 22.265625 11.890625 22.265625 11.898438 22.265625 C 11.949219 22.265625 12.007812 22.210938 12.046875 22.125 C 12.09375 22.03125 12.089844 21.933594 12.039062 21.910156 C 12.03125 21.90625 12.023438 21.90625 12.015625 21.90625 M 14.53125 22.730469 C 14.441406 22.691406 14.367188 22.660156 14.308594 22.625 C 14.355469 22.636719 14.417969 22.644531 14.492188 22.644531 C 14.503906 22.644531 14.515625 22.644531 14.527344 22.644531 C 14.566406 22.644531 14.648438 22.628906 14.726562 22.59375 C 14.65625 22.644531 14.589844 22.699219 14.53125 22.730469 " fill-opacity="1" fill-rule="nonzero"/><path fill="#f7dddd" d="M 12.308594 25.4375 C 12.246094 25.4375 12.183594 25.433594 12.117188 25.433594 C 11.53125 25.40625 11.046875 25.269531 10.703125 25.136719 C 10.679688 24.984375 10.652344 24.828125 10.628906 24.660156 C 11.003906 24.824219 11.5 24.980469 12.085938 25.03125 C 12.222656 25.042969 12.351562 25.046875 12.476562 25.046875 C 12.957031 25.046875 13.363281 24.972656 13.652344 24.894531 C 13.652344 24.894531 13.652344 24.890625 13.648438 24.886719 C 13.652344 24.890625 13.660156 24.894531 13.664062 24.902344 C 13.679688 25.003906 13.695312 25.109375 13.707031 25.210938 C 13.34375 25.332031 12.867188 25.4375 12.308594 25.4375 " fill-opacity="1" fill-rule="nonzero"/><path fill="#dfe2ef" d="M 12.476562 25.046875 C 12.351562 25.046875 12.222656 25.042969 12.085938 25.03125 C 11.5 24.980469 11.003906 24.824219 10.628906 24.660156 C 10.40625 24.5625 10.222656 24.460938 10.085938 24.378906 C 9.933594 24.003906 9.613281 21.128906 9.996094 18.945312 C 10.554688 19.039062 11.132812 19.125 11.726562 19.203125 C 11.410156 19.726562 11.273438 20.289062 11.308594 20.863281 C 11.394531 22.300781 12.773438 23.796875 13.40625 24.484375 C 13.585938 24.679688 13.640625 24.84375 13.648438 24.886719 C 13.652344 24.890625 13.652344 24.894531 13.652344 24.894531 C 13.363281 24.972656 12.957031 25.046875 12.476562 25.046875 " fill-opacity="1" fill-rule="nonzero"/><path fill="#d1d9ec" d="M 14.234375 31.996094 C 14.035156 31.980469 13.839844 31.964844 13.644531 31.945312 C 13.742188 29.828125 13.816406 27.527344 13.78125 25.871094 C 14.09375 28.933594 14.953125 29.171875 14.375 31.222656 C 14.296875 31.503906 14.253906 31.761719 14.234375 31.996094 " fill-opacity="1" fill-rule="nonzero"/><path fill="#d1d9ec" d="M 13.664062 24.902344 C 13.730469 24.097656 13.441406 23.335938 13.191406 22.839844 C 13.019531 22.496094 12.863281 22.28125 12.863281 22.28125 C 13.179688 22.511719 13.441406 22.679688 13.722656 22.816406 C 13.707031 23.609375 14.214844 23.640625 14.089844 24.246094 C 14.082031 24.285156 14.070312 24.328125 14.054688 24.371094 C 13.925781 24.792969 13.664062 24.902344 13.664062 24.902344 " fill-opacity="1" fill-rule="nonzero"/><path fill="#f7dddd" d="M 16.496094 24.175781 C 16.332031 23.980469 16.183594 23.808594 16.058594 23.660156 C 15.75 23.300781 15.414062 23.109375 15.121094 22.980469 C 14.882812 22.875 14.675781 22.808594 14.53125 22.730469 C 14.589844 22.699219 14.65625 22.644531 14.726562 22.59375 C 14.769531 22.574219 14.8125 22.550781 14.847656 22.519531 C 14.886719 22.5 14.929688 22.484375 14.976562 22.480469 C 15.023438 22.476562 15.070312 22.472656 15.113281 22.472656 C 15.546875 22.472656 15.773438 22.71875 16.011719 23.011719 C 16.109375 23.132812 16.289062 23.339844 16.496094 23.578125 L 16.496094 24.175781 " fill-opacity="1" fill-rule="nonzero"/><path fill="#f5d8d8" d="M 13.257812 22.097656 C 13.25 22.097656 13.246094 22.09375 13.238281 22.089844 C 13.230469 22.082031 13.226562 22.070312 13.230469 22.0625 C 13.230469 22.058594 13.234375 22.054688 13.234375 22.054688 L 13.984375 21.109375 C 13.992188 21.101562 14 21.097656 14.007812 21.097656 C 14.011719 21.097656 14.019531 21.097656 14.023438 21.101562 C 14.035156 21.113281 14.035156 21.128906 14.027344 21.140625 L 13.277344 22.085938 C 13.273438 22.089844 13.265625 22.09375 13.261719 22.09375 C 13.257812 22.097656 13.257812 22.097656 13.257812 22.097656 " fill-opacity="1" fill-rule="nonzero"/><path fill="#f5d8d8" d="M 13.679688 22.40625 C 13.675781 22.40625 13.667969 22.40625 13.664062 22.402344 C 13.652344 22.390625 13.652344 22.375 13.660156 22.363281 L 14.363281 21.453125 C 14.371094 21.449219 14.378906 21.445312 14.386719 21.445312 C 14.390625 21.445312 14.398438 21.445312 14.402344 21.449219 C 14.414062 21.457031 14.414062 21.476562 14.40625 21.488281 L 13.703125 22.394531 C 13.699219 22.402344 13.6875 22.40625 13.679688 22.40625 " fill-opacity="1" fill-rule="nonzero"/><path fill="#f5d8d8" d="M 11.898438 22.265625 C 11.890625 22.265625 11.882812 22.265625 11.878906 22.261719 C 11.828125 22.238281 11.824219 22.140625 11.871094 22.042969 C 11.90625 21.960938 11.96875 21.90625 12.015625 21.90625 C 12.023438 21.90625 12.03125 21.90625 12.039062 21.910156 C 12.089844 21.933594 12.09375 22.03125 12.046875 22.125 C 12.007812 22.210938 11.949219 22.265625 11.898438 22.265625 " fill-opacity="1" fill-rule="nonzero"/><path fill="#f5d8d8" d="M 14.492188 22.644531 C 14.417969 22.644531 14.355469 22.636719 14.308594 22.625 C 14.289062 22.621094 14.269531 22.617188 14.253906 22.609375 C 14.210938 22.59375 14.183594 22.570312 14.164062 22.542969 C 14.128906 22.496094 14.140625 22.445312 14.148438 22.425781 C 14.21875 22.261719 14.398438 22.0625 14.53125 21.917969 C 14.578125 21.863281 14.621094 21.816406 14.644531 21.789062 C 14.648438 21.78125 14.65625 21.777344 14.664062 21.777344 C 14.671875 21.777344 14.675781 21.777344 14.679688 21.78125 C 14.691406 21.792969 14.695312 21.808594 14.6875 21.820312 C 14.660156 21.851562 14.621094 21.898438 14.570312 21.953125 C 14.441406 22.09375 14.265625 22.289062 14.195312 22.445312 C 14.195312 22.445312 14.183594 22.480469 14.207031 22.511719 C 14.226562 22.542969 14.292969 22.589844 14.492188 22.589844 C 14.503906 22.589844 14.515625 22.589844 14.527344 22.589844 C 14.597656 22.589844 14.796875 22.539062 14.851562 22.425781 C 14.882812 22.371094 14.871094 22.308594 14.820312 22.234375 C 14.8125 22.222656 14.816406 22.203125 14.828125 22.195312 C 14.832031 22.195312 14.835938 22.191406 14.84375 22.191406 C 14.851562 22.191406 14.859375 22.195312 14.863281 22.203125 C 14.925781 22.292969 14.9375 22.378906 14.902344 22.453125 C 14.886719 22.476562 14.867188 22.5 14.847656 22.519531 C 14.8125 22.550781 14.769531 22.574219 14.726562 22.59375 C 14.648438 22.628906 14.566406 22.644531 14.527344 22.644531 C 14.515625 22.644531 14.503906 22.644531 14.492188 22.644531 " fill-opacity="1" fill-rule="nonzero"/><path fill="#4e62bd" d="M 2.347656 26.371094 C 2.78125 26.628906 3.277344 26.875 3.824219 27.109375 L 3.824219 23.3125 C 3.277344 23.078125 2.78125 22.832031 2.347656 22.574219 L 2.347656 26.371094 " fill-opacity="1" fill-rule="nonzero"/><path fill="#4e62bd" d="M 4.382812 27.339844 C 4.84375 27.515625 5.335938 27.6875 5.855469 27.847656 L 5.855469 22.703125 C 5.335938 22.546875 4.84375 22.375 4.382812 22.199219 L 4.382812 27.339844 " fill-opacity="1" fill-rule="nonzero"/><path fill="#4e62bd" d="M 6.417969 28.011719 C 6.886719 28.144531 7.378906 28.269531 7.890625 28.386719 L 7.890625 21.230469 C 7.378906 21.113281 6.886719 20.988281 6.417969 20.855469 L 6.417969 28.011719 " fill-opacity="1" fill-rule="nonzero"/><path fill="#4e62bd" d="M 8.449219 28.507812 C 8.925781 28.609375 9.417969 28.703125 9.925781 28.792969 L 9.925781 24.320312 C 9.417969 24.234375 8.925781 24.140625 8.449219 24.039062 L 8.449219 28.507812 " fill-opacity="1" fill-rule="nonzero"/><path fill="#4e62bd" d="M 10.484375 28.882812 C 10.964844 28.960938 11.457031 29.03125 11.957031 29.09375 L 11.957031 23.617188 C 11.457031 23.550781 10.964844 23.484375 10.484375 23.40625 L 10.484375 28.882812 " fill-opacity="1" fill-rule="nonzero"/><path fill="#4e62bd" d="M 12.515625 29.160156 C 13 29.214844 13.492188 29.265625 13.992188 29.304688 L 13.992188 22.820312 C 13.492188 22.777344 13 22.730469 12.515625 22.675781 L 12.515625 29.160156 " fill-opacity="1" fill-rule="nonzero"/><g clip-path="url(#b003924a79)"><path fill="#fbfbfb" d="M 27.453125 31.855469 C 27.453125 31.847656 27.453125 31.839844 27.453125 31.832031 C 27.457031 31.828125 27.457031 31.828125 27.460938 31.824219 C 27.472656 31.824219 27.460938 31.699219 27.453125 31.4375 C 27.453125 31.175781 27.453125 30.917969 27.457031 30.667969 C 28.488281 29.257812 29.414062 26.765625 29.808594 24.058594 C 29.878906 23.597656 29.953125 22.882812 29.996094 22.054688 C 30.078125 22.003906 30.160156 21.953125 30.234375 21.902344 C 30.234375 21.898438 30.238281 21.898438 30.238281 21.898438 C 30.238281 21.898438 30.242188 21.898438 30.242188 21.894531 C 30.242188 21.894531 30.242188 21.894531 30.246094 21.894531 C 30.246094 21.894531 30.246094 21.890625 30.25 21.890625 C 30.277344 21.792969 30.3125 21.351562 30.3125 20.734375 C 30.3125 20.101562 30.277344 19.289062 30.164062 18.472656 C 30.296875 18.441406 30.429688 18.410156 30.5625 18.375 C 32.546875 18.851562 34.171875 19.472656 35.273438 20.1875 L 35.273438 16.628906 C 36.222656 16.09375 36.914062 15.503906 37.289062 14.878906 L 37.289062 27.726562 C 36.203125 29.53125 32.492188 31.042969 27.453125 31.855469 " fill-opacity="1" fill-rule="nonzero"/></g><path fill="#f8f8f8" d="M 35.273438 20.1875 C 34.171875 19.472656 32.546875 18.851562 30.5625 18.375 C 31.351562 18.179688 32.09375 17.960938 32.773438 17.726562 C 33.269531 17.945312 33.707031 18.179688 34.085938 18.425781 C 34.097656 18.433594 34.109375 18.4375 34.125 18.4375 C 34.144531 18.4375 34.167969 18.425781 34.179688 18.40625 C 34.203125 18.375 34.191406 18.335938 34.160156 18.3125 C 33.808594 18.085938 33.40625 17.867188 32.957031 17.660156 C 33.160156 17.585938 33.359375 17.511719 33.550781 17.4375 C 33.742188 17.539062 33.921875 17.644531 34.085938 17.753906 C 34.097656 17.761719 34.109375 17.765625 34.125 17.765625 C 34.144531 17.765625 34.167969 17.753906 34.179688 17.734375 C 34.203125 17.703125 34.191406 17.664062 34.160156 17.640625 C 34.019531 17.550781 33.871094 17.460938 33.714844 17.371094 C 34.289062 17.136719 34.8125 16.890625 35.273438 16.628906 L 35.273438 20.1875 " fill-opacity="1" fill-rule="nonzero"/><path fill="#cfd5ea" d="M 34.125 17.765625 C 34.109375 17.765625 34.097656 17.761719 34.085938 17.753906 C 33.921875 17.644531 33.742188 17.539062 33.550781 17.4375 C 33.605469 17.414062 33.660156 17.394531 33.714844 17.371094 C 33.871094 17.460938 34.019531 17.550781 34.160156 17.640625 C 34.191406 17.664062 34.203125 17.703125 34.179688 17.734375 C 34.167969 17.753906 34.144531 17.765625 34.125 17.765625 " fill-opacity="1" fill-rule="nonzero"/><path fill="#cfd5ea" d="M 34.125 18.4375 C 34.109375 18.4375 34.097656 18.433594 34.085938 18.425781 C 33.707031 18.179688 33.269531 17.945312 32.773438 17.726562 C 32.832031 17.703125 32.894531 17.683594 32.957031 17.660156 C 33.40625 17.867188 33.808594 18.085938 34.160156 18.3125 C 34.191406 18.335938 34.203125 18.375 34.179688 18.40625 C 34.167969 18.425781 34.144531 18.4375 34.125 18.4375 " fill-opacity="1" fill-rule="nonzero"/><path fill="#cfd5ea" d="M 21.332031 32.449219 L 21.332031 30.035156 C 22.273438 30.863281 23.335938 31.695312 24.265625 32.257812 C 23.316406 32.34375 22.335938 32.410156 21.332031 32.449219 M 27.445312 31.855469 C 27.445312 31.851562 27.445312 31.851562 27.445312 31.847656 C 27.449219 31.839844 27.453125 31.835938 27.453125 31.832031 C 27.453125 31.839844 27.453125 31.847656 27.453125 31.855469 C 27.453125 31.855469 27.449219 31.855469 27.445312 31.855469 M 26.1875 31.785156 L 26.1875 31.785156 M 26.191406 31.785156 L 26.191406 31.785156 M 26.191406 31.785156 C 26.195312 31.785156 26.195312 31.785156 26.195312 31.785156 C 26.195312 31.785156 26.195312 31.785156 26.191406 31.785156 M 26.195312 31.78125 L 26.195312 31.78125 M 26.199219 31.78125 L 26.199219 31.78125 M 26.199219 31.78125 L 26.199219 31.78125 M 26.207031 31.777344 L 26.207031 31.777344 M 26.207031 31.777344 L 26.207031 31.777344 M 26.210938 31.777344 L 26.210938 31.777344 M 26.214844 31.777344 L 26.214844 31.777344 M 27.453125 31.4375 C 27.445312 31.253906 27.441406 31 27.449219 30.675781 C 27.453125 30.671875 27.457031 30.667969 27.457031 30.667969 C 27.453125 30.917969 27.453125 31.175781 27.453125 31.4375 M 25 27.640625 C 24.828125 27.507812 23.234375 26.292969 21.332031 24.960938 L 21.332031 19.601562 C 21.714844 19.585938 22.09375 19.566406 22.46875 19.546875 C 23.671875 21.023438 24.660156 22.542969 24.902344 22.925781 C 24.902344 22.933594 24.898438 22.945312 24.898438 22.953125 C 24.894531 22.96875 24.902344 22.984375 24.917969 22.988281 C 24.921875 22.988281 24.925781 22.988281 24.925781 22.988281 C 24.933594 22.988281 24.9375 22.988281 24.941406 22.984375 C 24.953125 23.007812 24.960938 23.019531 24.960938 23.019531 C 25.019531 23.027344 25.082031 23.035156 25.148438 23.042969 C 25.132812 23.15625 25.121094 23.277344 25.109375 23.410156 C 24.898438 25.429688 25.003906 27.425781 25.015625 27.632812 C 25.007812 27.632812 25.003906 27.636719 25 27.640625 " fill-opacity="1" fill-rule="nonzero"/><path fill="#fbd7d7" d="M 26.1875 31.785156 C 26.191406 31.785156 26.199219 31.78125 26.207031 31.777344 C 25.785156 31.480469 24.570312 31.09375 23.4375 30.398438 C 23.011719 30.140625 22.25 29.523438 21.332031 28.679688 L 21.332031 24.960938 C 23.234375 26.292969 24.828125 27.507812 25 27.640625 C 24.992188 27.644531 24.988281 27.652344 24.988281 27.664062 C 24.988281 27.679688 25 27.695312 25.019531 27.695312 C 25.421875 27.695312 26.296875 28.308594 26.296875 28.597656 C 26.296875 28.613281 26.308594 28.628906 26.324219 28.628906 C 26.34375 28.628906 26.355469 28.613281 26.355469 28.597656 C 26.355469 28.28125 25.457031 27.632812 25.019531 27.632812 C 25.015625 27.632812 25.015625 27.632812 25.015625 27.632812 C 25.003906 27.425781 24.898438 25.429688 25.109375 23.410156 C 25.445312 23.445312 25.769531 23.460938 26.082031 23.460938 C 27.957031 23.460938 29.324219 22.902344 29.964844 22.550781 C 29.976562 22.390625 29.988281 22.226562 29.996094 22.054688 C 29.953125 22.882812 29.878906 23.597656 29.808594 24.058594 C 29.414062 26.765625 28.488281 29.257812 27.457031 30.667969 C 27.457031 30.667969 27.453125 30.671875 27.449219 30.675781 C 27.351562 30.8125 27.25 30.9375 27.148438 31.054688 C 26.953125 31.207031 26.796875 31.359375 26.671875 31.507812 C 26.519531 31.625 26.363281 31.714844 26.214844 31.777344 C 26.210938 31.777344 26.210938 31.777344 26.210938 31.777344 C 26.210938 31.777344 26.210938 31.777344 26.207031 31.777344 C 26.203125 31.78125 26.203125 31.78125 26.199219 31.78125 C 26.199219 31.78125 26.195312 31.78125 26.195312 31.78125 C 26.195312 31.78125 26.195312 31.78125 26.195312 31.785156 C 26.195312 31.785156 26.195312 31.785156 26.191406 31.785156 C 26.191406 31.785156 26.191406 31.785156 26.1875 31.785156 " fill-opacity="1" fill-rule="nonzero"/><path fill="#f7cccc" d="M 26.082031 23.460938 C 25.769531 23.460938 25.445312 23.445312 25.109375 23.410156 C 25.121094 23.277344 25.132812 23.15625 25.148438 23.042969 C 25.410156 23.074219 25.722656 23.097656 26.078125 23.097656 C 26.578125 23.097656 27.15625 23.050781 27.789062 22.910156 C 28.847656 22.671875 29.5 22.363281 29.996094 22.054688 C 29.988281 22.226562 29.976562 22.390625 29.964844 22.550781 C 29.324219 22.902344 27.957031 23.460938 26.082031 23.460938 " fill-opacity="1" fill-rule="nonzero"/><path fill="#cfd5ea" d="M 26.078125 23.097656 C 25.722656 23.097656 25.410156 23.074219 25.148438 23.042969 C 25.082031 23.035156 25.019531 23.027344 24.960938 23.019531 C 24.960938 23.019531 24.953125 23.007812 24.941406 22.984375 C 24.949219 22.980469 24.953125 22.976562 24.957031 22.96875 C 25.082031 22.472656 25.140625 21.960938 25.140625 21.453125 C 25.136719 20.816406 25.035156 20.183594 24.832031 19.574219 C 24.828125 19.5625 24.816406 19.554688 24.804688 19.554688 C 24.800781 19.554688 24.796875 19.554688 24.796875 19.554688 C 24.78125 19.558594 24.769531 19.578125 24.777344 19.59375 C 24.972656 20.195312 25.074219 20.820312 25.078125 21.453125 C 25.082031 21.949219 25.023438 22.445312 24.902344 22.925781 C 24.660156 22.542969 23.671875 21.023438 22.46875 19.546875 C 24.757812 19.40625 26.898438 19.140625 28.808594 18.765625 C 28.816406 18.890625 28.828125 19.023438 28.851562 19.160156 C 28.988281 20.003906 29.792969 20.546875 29.734375 22.210938 C 29.917969 22.109375 30.082031 22.003906 30.234375 21.902344 C 30.160156 21.953125 30.078125 22.003906 29.996094 22.054688 C 29.5 22.363281 28.847656 22.671875 27.789062 22.910156 C 27.15625 23.050781 26.578125 23.097656 26.078125 23.097656 M 30.234375 21.902344 C 30.234375 21.898438 30.238281 21.898438 30.238281 21.898438 C 30.238281 21.898438 30.234375 21.898438 30.234375 21.902344 M 30.238281 21.898438 C 30.238281 21.898438 30.242188 21.898438 30.242188 21.894531 C 30.242188 21.898438 30.238281 21.898438 30.238281 21.898438 M 30.242188 21.894531 C 30.242188 21.894531 30.242188 21.894531 30.246094 21.894531 C 30.242188 21.894531 30.242188 21.894531 30.242188 21.894531 M 30.246094 21.894531 C 30.246094 21.894531 30.246094 21.890625 30.25 21.890625 C 30.246094 21.890625 30.246094 21.894531 30.246094 21.894531 M 30.25 21.890625 C 30.277344 21.792969 30.3125 21.351562 30.3125 20.734375 C 30.3125 21.351562 30.277344 21.792969 30.25 21.890625 " fill-opacity="1" fill-rule="nonzero"/><path fill="#a3adda" d="M 24.925781 22.988281 C 24.925781 22.988281 24.921875 22.988281 24.917969 22.988281 C 24.902344 22.984375 24.894531 22.96875 24.898438 22.953125 C 24.898438 22.945312 24.902344 22.933594 24.902344 22.925781 C 25.023438 22.445312 25.082031 21.949219 25.078125 21.453125 C 25.074219 20.820312 24.972656 20.195312 24.777344 19.59375 C 24.769531 19.578125 24.78125 19.558594 24.796875 19.554688 C 24.796875 19.554688 24.800781 19.554688 24.804688 19.554688 C 24.816406 19.554688 24.828125 19.5625 24.832031 19.574219 C 25.035156 20.183594 25.136719 20.816406 25.140625 21.453125 C 25.140625 21.960938 25.082031 22.472656 24.957031 22.96875 C 24.953125 22.976562 24.949219 22.980469 24.941406 22.984375 C 24.9375 22.988281 24.933594 22.988281 24.925781 22.988281 " fill-opacity="1" fill-rule="nonzero"/><path fill="#f5c3c3" d="M 26.324219 28.628906 C 26.308594 28.628906 26.296875 28.613281 26.296875 28.597656 C 26.296875 28.308594 25.421875 27.695312 25.019531 27.695312 C 25 27.695312 24.988281 27.679688 24.988281 27.664062 C 24.988281 27.652344 24.992188 27.644531 25 27.640625 C 25.003906 27.636719 25.007812 27.632812 25.015625 27.632812 C 25.015625 27.632812 25.015625 27.632812 25.019531 27.632812 C 25.457031 27.632812 26.355469 28.28125 26.355469 28.597656 C 26.355469 28.613281 26.34375 28.628906 26.324219 28.628906 " fill-opacity="1" fill-rule="nonzero"/><path fill="#b8c6e4" d="M 24.265625 32.257812 C 23.335938 31.695312 22.273438 30.863281 21.332031 30.035156 L 21.332031 29.265625 C 22.429688 30.246094 24.144531 31.535156 26.1875 31.785156 C 26.191406 31.785156 26.191406 31.785156 26.191406 31.785156 C 26.195312 31.785156 26.195312 31.785156 26.195312 31.785156 C 26.195312 31.78125 26.195312 31.78125 26.195312 31.78125 C 26.195312 31.78125 26.199219 31.78125 26.199219 31.78125 C 26.203125 31.78125 26.203125 31.78125 26.207031 31.777344 C 26.210938 31.777344 26.210938 31.777344 26.210938 31.777344 C 26.210938 31.777344 26.210938 31.777344 26.214844 31.777344 C 26.363281 31.714844 26.519531 31.625 26.671875 31.507812 C 26.519531 31.6875 26.417969 31.859375 26.347656 32.019531 C 25.671875 32.109375 24.976562 32.191406 24.265625 32.257812 M 27.445312 31.847656 C 27.441406 31.488281 27.441406 31.148438 27.445312 30.835938 C 27.339844 30.910156 27.238281 30.980469 27.148438 31.054688 C 27.25 30.9375 27.351562 30.8125 27.449219 30.675781 C 27.441406 31 27.445312 31.253906 27.453125 31.4375 C 27.460938 31.699219 27.472656 31.824219 27.460938 31.824219 C 27.457031 31.828125 27.457031 31.828125 27.453125 31.832031 C 27.453125 31.835938 27.449219 31.839844 27.445312 31.847656 " fill-opacity="1" fill-rule="nonzero"/><path fill="#b8c6e4" d="M 26.347656 32.019531 C 26.417969 31.859375 26.519531 31.6875 26.671875 31.507812 C 26.796875 31.359375 26.953125 31.207031 27.148438 31.054688 C 27.238281 30.980469 27.339844 30.910156 27.445312 30.835938 C 27.441406 31.148438 27.441406 31.488281 27.445312 31.847656 C 27.445312 31.851562 27.445312 31.851562 27.445312 31.855469 C 27.085938 31.914062 26.71875 31.96875 26.347656 32.019531 " fill-opacity="1" fill-rule="nonzero"/><path fill="#b8c6e4" d="M 29.734375 22.210938 C 29.792969 20.546875 28.988281 20.003906 28.851562 19.160156 C 28.828125 19.023438 28.816406 18.890625 28.808594 18.765625 C 29.273438 18.675781 29.726562 18.578125 30.164062 18.472656 C 30.277344 19.289062 30.3125 20.101562 30.3125 20.734375 C 30.3125 21.351562 30.277344 21.792969 30.25 21.890625 C 30.246094 21.890625 30.246094 21.894531 30.246094 21.894531 C 30.242188 21.894531 30.242188 21.894531 30.242188 21.894531 C 30.242188 21.898438 30.238281 21.898438 30.238281 21.898438 C 30.238281 21.898438 30.234375 21.898438 30.234375 21.902344 C 30.082031 22.003906 29.917969 22.109375 29.734375 22.210938 " fill-opacity="1" fill-rule="nonzero"/><path fill="#f7cccc" d="M 26.1875 31.785156 C 24.144531 31.535156 22.429688 30.246094 21.332031 29.265625 L 21.332031 28.679688 C 22.25 29.523438 23.011719 30.140625 23.4375 30.398438 C 24.570312 31.09375 25.785156 31.480469 26.207031 31.777344 C 26.199219 31.78125 26.191406 31.785156 26.1875 31.785156 " fill-opacity="1" fill-rule="nonzero"/><path fill="#4e62bd" d="M 34.5 22.8125 C 34.484375 22.8125 34.464844 22.800781 34.449219 22.785156 C 34.425781 22.757812 34.429688 22.714844 34.457031 22.691406 L 35.394531 21.902344 C 35.425781 21.878906 35.46875 21.882812 35.492188 21.910156 C 35.515625 21.941406 35.511719 21.984375 35.484375 22.007812 L 34.546875 22.792969 C 34.53125 22.804688 34.515625 22.8125 34.5 22.8125 " fill-opacity="1" fill-rule="nonzero"/><path fill="#4e62bd" d="M 33.839844 22.917969 C 33.828125 22.917969 33.816406 22.914062 33.808594 22.910156 L 32.480469 22.234375 C 32.449219 22.21875 32.4375 22.179688 32.453125 22.144531 C 32.46875 22.113281 32.511719 22.097656 32.542969 22.117188 L 33.871094 22.789062 C 33.902344 22.808594 33.914062 22.847656 33.898438 22.878906 C 33.886719 22.902344 33.863281 22.917969 33.839844 22.917969 " fill-opacity="1" fill-rule="nonzero"/><path fill="#4e62bd" d="M 30.265625 24.542969 C 30.25 24.542969 30.238281 24.539062 30.222656 24.53125 C 30.195312 24.507812 30.1875 24.464844 30.210938 24.4375 L 31.855469 22.277344 C 31.875 22.246094 31.917969 22.238281 31.949219 22.261719 C 31.980469 22.285156 31.984375 22.328125 31.960938 22.355469 L 30.320312 24.519531 C 30.304688 24.535156 30.285156 24.542969 30.265625 24.542969 " fill-opacity="1" fill-rule="nonzero"/><path fill="#4e62bd" d="M 29.632812 24.738281 C 29.625 24.738281 29.621094 24.738281 29.613281 24.734375 L 28.101562 24.226562 C 28.066406 24.214844 28.046875 24.175781 28.058594 24.140625 C 28.070312 24.105469 28.109375 24.085938 28.144531 24.097656 L 29.65625 24.605469 C 29.691406 24.617188 29.710938 24.65625 29.699219 24.691406 C 29.6875 24.71875 29.664062 24.738281 29.632812 24.738281 " fill-opacity="1" fill-rule="nonzero"/><path fill="#4e62bd" d="M 26.203125 25.6875 C 26.1875 25.6875 26.171875 25.683594 26.160156 25.667969 C 26.132812 25.644531 26.128906 25.601562 26.15625 25.574219 L 27.347656 24.316406 C 27.375 24.289062 27.417969 24.289062 27.441406 24.3125 C 27.472656 24.339844 27.472656 24.382812 27.445312 24.410156 L 26.253906 25.667969 C 26.242188 25.679688 26.222656 25.6875 26.203125 25.6875 " fill-opacity="1" fill-rule="nonzero"/><path fill="#4e62bd" d="M 25.441406 25.757812 C 25.4375 25.757812 25.429688 25.757812 25.425781 25.753906 L 24.003906 25.355469 C 23.96875 25.34375 23.949219 25.308594 23.957031 25.269531 C 23.96875 25.234375 24.003906 25.214844 24.042969 25.226562 L 25.460938 25.625 C 25.496094 25.636719 25.519531 25.671875 25.507812 25.707031 C 25.5 25.738281 25.472656 25.757812 25.441406 25.757812 " fill-opacity="1" fill-rule="nonzero"/><path fill="#4e62bd" d="M 23.625 24.867188 C 23.4375 24.867188 23.289062 25.015625 23.289062 25.203125 C 23.289062 25.386719 23.4375 25.535156 23.625 25.535156 C 23.8125 25.535156 23.964844 25.386719 23.964844 25.203125 C 23.964844 25.015625 23.8125 24.867188 23.625 24.867188 Z M 23.625 25.671875 C 23.363281 25.671875 23.152344 25.460938 23.152344 25.203125 C 23.152344 24.941406 23.363281 24.730469 23.625 24.730469 C 23.886719 24.730469 24.101562 24.941406 24.101562 25.203125 C 24.101562 25.460938 23.886719 25.671875 23.625 25.671875 " fill-opacity="1" fill-rule="nonzero"/><path fill="#4e62bd" d="M 25.851562 25.480469 C 25.664062 25.480469 25.511719 25.632812 25.511719 25.816406 C 25.511719 26 25.664062 26.152344 25.851562 26.152344 C 26.035156 26.152344 26.1875 26 26.1875 25.816406 C 26.1875 25.632812 26.035156 25.480469 25.851562 25.480469 Z M 25.851562 26.285156 C 25.589844 26.285156 25.375 26.074219 25.375 25.816406 C 25.375 25.558594 25.589844 25.347656 25.851562 25.347656 C 26.109375 25.347656 26.324219 25.558594 26.324219 25.816406 C 26.324219 26.074219 26.109375 26.285156 25.851562 26.285156 " fill-opacity="1" fill-rule="nonzero"/><path fill="#4e62bd" d="M 27.714844 23.703125 C 27.527344 23.703125 27.378906 23.855469 27.378906 24.039062 C 27.378906 24.226562 27.527344 24.375 27.714844 24.375 C 27.902344 24.375 28.054688 24.226562 28.054688 24.039062 C 28.054688 23.855469 27.902344 23.703125 27.714844 23.703125 Z M 27.714844 24.511719 C 27.453125 24.511719 27.242188 24.300781 27.242188 24.039062 C 27.242188 23.78125 27.453125 23.570312 27.714844 23.570312 C 27.976562 23.570312 28.191406 23.78125 28.191406 24.039062 C 28.191406 24.300781 27.976562 24.511719 27.714844 24.511719 " fill-opacity="1" fill-rule="nonzero"/><path fill="#4e62bd" d="M 30.019531 24.460938 C 29.832031 24.460938 29.679688 24.613281 29.679688 24.796875 C 29.679688 24.984375 29.832031 25.132812 30.019531 25.132812 C 30.207031 25.132812 30.359375 24.984375 30.359375 24.796875 C 30.359375 24.613281 30.207031 24.460938 30.019531 24.460938 Z M 30.019531 25.269531 C 29.757812 25.269531 29.546875 25.058594 29.546875 24.796875 C 29.546875 24.539062 29.757812 24.328125 30.019531 24.328125 C 30.28125 24.328125 30.496094 24.539062 30.496094 24.796875 C 30.496094 25.058594 30.28125 25.269531 30.019531 25.269531 " fill-opacity="1" fill-rule="nonzero"/><path fill="#4e62bd" d="M 32.152344 21.65625 C 31.964844 21.65625 31.8125 21.808594 31.8125 21.992188 C 31.8125 22.179688 31.964844 22.328125 32.152344 22.328125 C 32.339844 22.328125 32.488281 22.179688 32.488281 21.992188 C 32.488281 21.808594 32.339844 21.65625 32.152344 21.65625 Z M 32.152344 22.464844 C 31.890625 22.464844 31.675781 22.253906 31.675781 21.992188 C 31.675781 21.734375 31.890625 21.523438 32.152344 21.523438 C 32.414062 21.523438 32.625 21.734375 32.625 21.992188 C 32.625 22.253906 32.414062 22.464844 32.152344 22.464844 " fill-opacity="1" fill-rule="nonzero"/><path fill="#4e62bd" d="M 34.207031 22.683594 C 34.019531 22.683594 33.867188 22.835938 33.867188 23.019531 C 33.867188 23.207031 34.019531 23.355469 34.207031 23.355469 C 34.394531 23.355469 34.546875 23.207031 34.546875 23.019531 C 34.546875 22.835938 34.394531 22.683594 34.207031 22.683594 Z M 34.207031 23.492188 C 33.945312 23.492188 33.730469 23.28125 33.730469 23.019531 C 33.730469 22.761719 33.945312 22.550781 34.207031 22.550781 C 34.46875 22.550781 34.679688 22.761719 34.679688 23.019531 C 34.679688 23.28125 34.46875 23.492188 34.207031 23.492188 " fill-opacity="1" fill-rule="nonzero"/><path fill="#4e62bd" d="M 35.882812 21.222656 C 35.695312 21.222656 35.546875 21.375 35.546875 21.558594 C 35.546875 21.746094 35.695312 21.894531 35.882812 21.894531 C 36.070312 21.894531 36.222656 21.746094 36.222656 21.558594 C 36.222656 21.375 36.070312 21.222656 35.882812 21.222656 Z M 35.882812 22.027344 C 35.621094 22.027344 35.410156 21.816406 35.410156 21.558594 C 35.410156 21.300781 35.621094 21.089844 35.882812 21.089844 C 36.144531 21.089844 36.359375 21.300781 36.359375 21.558594 C 36.359375 21.816406 36.144531 22.027344 35.882812 22.027344 " fill-opacity="1" fill-rule="nonzero"/><path fill="#4e62bd" d="M 23.625 29.609375 C 23.589844 29.609375 23.558594 29.578125 23.558594 29.542969 L 23.558594 26.414062 C 23.558594 26.378906 23.589844 26.347656 23.625 26.347656 C 23.664062 26.347656 23.695312 26.378906 23.695312 26.414062 L 23.695312 29.542969 C 23.695312 29.578125 23.664062 29.609375 23.625 29.609375 " fill-opacity="1" fill-rule="nonzero"/><path fill="#4e62bd" d="M 25.882812 29.40625 C 25.847656 29.40625 25.816406 29.378906 25.816406 29.339844 L 25.816406 26.976562 C 25.816406 26.941406 25.847656 26.910156 25.882812 26.910156 C 25.921875 26.910156 25.953125 26.941406 25.953125 26.976562 L 25.953125 29.339844 C 25.953125 29.378906 25.921875 29.40625 25.882812 29.40625 " fill-opacity="1" fill-rule="nonzero"/><path fill="#4e62bd" d="M 27.816406 29.136719 C 27.78125 29.136719 27.75 29.105469 27.75 29.070312 L 27.75 25.175781 C 27.75 25.140625 27.78125 25.109375 27.816406 25.109375 C 27.855469 25.109375 27.886719 25.140625 27.886719 25.175781 L 27.886719 29.070312 C 27.886719 29.105469 27.855469 29.136719 27.816406 29.136719 " fill-opacity="1" fill-rule="nonzero"/><path fill="#4e62bd" d="M 30.019531 28.695312 C 29.980469 28.695312 29.953125 28.667969 29.953125 28.628906 L 29.953125 25.710938 C 29.953125 25.671875 29.980469 25.640625 30.019531 25.640625 C 30.058594 25.640625 30.085938 25.671875 30.085938 25.710938 L 30.085938 28.628906 C 30.085938 28.667969 30.058594 28.695312 30.019531 28.695312 " fill-opacity="1" fill-rule="nonzero"/><path fill="#4e62bd" d="M 32.152344 28.121094 C 32.113281 28.121094 32.082031 28.089844 32.082031 28.050781 L 32.082031 22.851562 C 32.082031 22.8125 32.113281 22.78125 32.152344 22.78125 C 32.1875 22.78125 32.21875 22.8125 32.21875 22.851562 L 32.21875 28.050781 C 32.21875 28.089844 32.1875 28.121094 32.152344 28.121094 " fill-opacity="1" fill-rule="nonzero"/><path fill="#4e62bd" d="M 34.207031 27.3125 C 34.167969 27.3125 34.140625 27.28125 34.140625 27.246094 L 34.140625 23.882812 C 34.140625 23.84375 34.167969 23.8125 34.207031 23.8125 C 34.246094 23.8125 34.273438 23.84375 34.273438 23.882812 L 34.273438 27.246094 C 34.273438 27.28125 34.246094 27.3125 34.207031 27.3125 " fill-opacity="1" fill-rule="nonzero"/><path fill="#4e62bd" d="M 35.882812 26.441406 C 35.847656 26.441406 35.816406 26.410156 35.816406 26.375 L 35.816406 22.511719 C 35.816406 22.476562 35.847656 22.445312 35.882812 22.445312 C 35.921875 22.445312 35.953125 22.476562 35.953125 22.511719 L 35.953125 26.375 C 35.953125 26.410156 35.921875 26.441406 35.882812 26.441406 " fill-opacity="1" fill-rule="nonzero"/></svg>